<?xml version="1.0" encoding="UTF-8"?>
<svg xmlns="http://www.w3.org/2000/svg" viewBox="0 0 530 175" width="530" height="175">
  <defs>
    <style>
      .key { fill: #2d2d2d; stroke: #4a4a4a; stroke-width: 1; rx: 3; }
      .key-layer { fill: #ea580c; stroke: #f97316; stroke-width: 1.5; rx: 3; }
      .key-special { fill: #581c87; stroke: #a855f7; stroke-width: 1; rx: 3; }
      .key-text { font-family: -apple-system, BlinkMacSystemFont, 'Segoe UI', Roboto, sans-serif; font-size: 9px; font-weight: 500; fill: #ffffff; text-anchor: middle; dominant-baseline: middle; }
      .key-text-small { font-family: -apple-system, BlinkMacSystemFont, 'Segoe UI', Roboto, sans-serif; font-size: 6.5px; font-weight: 500; fill: #ffffff; text-anchor: middle; dominant-baseline: middle; }
    </style>
  </defs>

  <!-- Row 1: ESC, 1-9, 0, -, =, BSPC (2u) -->
  <rect class="key" x="5" y="5" width="28" height="28"/>
  <text class="key-text" x="19" y="19">ESC</text>

  <rect class="key" x="38" y="5" width="28" height="28"/>
  <text class="key-text" x="52" y="19">1</text>

  <rect class="key" x="71" y="5" width="28" height="28"/>
  <text class="key-text" x="85" y="19">2</text>

  <rect class="key" x="104" y="5" width="28" height="28"/>
  <text class="key-text" x="118" y="19">3</text>

  <rect class="key" x="137" y="5" width="28" height="28"/>
  <text class="key-text" x="151" y="19">4</text>

  <rect class="key" x="170" y="5" width="28" height="28"/>
  <text class="key-text" x="184" y="19">5</text>

  <rect class="key" x="203" y="5" width="28" height="28"/>
  <text class="key-text" x="217" y="19">6</text>

  <rect class="key" x="236" y="5" width="28" height="28"/>
  <text class="key-text" x="250" y="19">7</text>

  <rect class="key" x="269" y="5" width="28" height="28"/>
  <text class="key-text" x="283" y="19">8</text>

  <rect class="key" x="302" y="5" width="28" height="28"/>
  <text class="key-text" x="316" y="19">9</text>

  <rect class="key" x="335" y="5" width="28" height="28"/>
  <text class="key-text" x="349" y="19">0</text>

  <rect class="key" x="368" y="5" width="28" height="28"/>
  <text class="key-text" x="382" y="19">-</text>

  <rect class="key" x="401" y="5" width="28" height="28"/>
  <text class="key-text" x="415" y="19">=</text>

  <rect class="key" x="434" y="5" width="91" height="28"/>
  <text class="key-text" x="479.5" y="19">BKSP</text>

  <!-- Row 2: TAB (1.5u), Q-P, [, ], \ (1.5u) -->
  <rect class="key" x="5" y="38" width="47" height="28"/>
  <text class="key-text" x="28.5" y="52">TAB</text>

  <rect class="key" x="57" y="38" width="28" height="28"/>
  <text class="key-text" x="71" y="52">Q</text>

  <rect class="key" x="90" y="38" width="28" height="28"/>
  <text class="key-text" x="104" y="52">W</text>

  <rect class="key" x="123" y="38" width="28" height="28"/>
  <text class="key-text" x="137" y="52">E</text>

  <rect class="key" x="156" y="38" width="28" height="28"/>
  <text class="key-text" x="170" y="52">R</text>

  <rect class="key" x="189" y="38" width="28" height="28"/>
  <text class="key-text" x="203" y="52">T</text>

  <rect class="key" x="222" y="38" width="28" height="28"/>
  <text class="key-text" x="236" y="52">Y</text>

  <rect class="key" x="255" y="38" width="28" height="28"/>
  <text class="key-text" x="269" y="52">U</text>

  <rect class="key" x="288" y="38" width="28" height="28"/>
  <text class="key-text" x="302" y="52">I</text>

  <rect class="key" x="321" y="38" width="28" height="28"/>
  <text class="key-text" x="335" y="52">O</text>

  <rect class="key" x="354" y="38" width="28" height="28"/>
  <text class="key-text" x="368" y="52">P</text>

  <rect class="key" x="387" y="38" width="28" height="28"/>
  <text class="key-text" x="401" y="52">[</text>

  <rect class="key" x="420" y="38" width="28" height="28"/>
  <text class="key-text" x="434" y="52">]</text>

  <rect class="key" x="453" y="38" width="72" height="28"/>
  <text class="key-text" x="489" y="52">\</text>

  <!-- Row 3: GRAVE (1.75u), A-L, ;, ', ENTER (2.25u) -->
  <rect class="key" x="5" y="71" width="54" height="28"/>
  <text class="key-text" x="32" y="85">`</text>

  <rect class="key" x="64" y="71" width="28" height="28"/>
  <text class="key-text" x="78" y="85">A</text>

  <rect class="key" x="97" y="71" width="28" height="28"/>
  <text class="key-text" x="111" y="85">S</text>

  <rect class="key" x="130" y="71" width="28" height="28"/>
  <text class="key-text" x="144" y="85">D</text>

  <rect class="key" x="163" y="71" width="28" height="28"/>
  <text class="key-text" x="177" y="85">F</text>

  <rect class="key" x="196" y="71" width="28" height="28"/>
  <text class="key-text" x="210" y="85">G</text>

  <rect class="key" x="229" y="71" width="28" height="28"/>
  <text class="key-text" x="243" y="85">H</text>

  <rect class="key" x="262" y="71" width="28" height="28"/>
  <text class="key-text" x="276" y="85">J</text>

  <rect class="key" x="295" y="71" width="28" height="28"/>
  <text class="key-text" x="309" y="85">K</text>

  <rect class="key" x="328" y="71" width="28" height="28"/>
  <text class="key-text" x="342" y="85">L</text>

  <rect class="key" x="361" y="71" width="28" height="28"/>
  <text class="key-text" x="375" y="85">;</text>

  <rect class="key" x="394" y="71" width="28" height="28"/>
  <text class="key-text" x="408" y="85">'</text>

  <rect class="key" x="427" y="71" width="98" height="28"/>
  <text class="key-text" x="476" y="85">ENTER</text>

  <!-- Row 4: LSHIFT (2.25u), Z-M, ,, ., /, RSHIFT (1.75u), Fn (1u) -->
  <rect class="key" x="5" y="104" width="68" height="28"/>
  <text class="key-text" x="39" y="118">SHIFT</text>

  <rect class="key" x="78" y="104" width="28" height="28"/>
  <text class="key-text" x="92" y="118">Z</text>

  <rect class="key" x="111" y="104" width="28" height="28"/>
  <text class="key-text" x="125" y="118">X</text>

  <rect class="key" x="144" y="104" width="28" height="28"/>
  <text class="key-text" x="158" y="118">C</text>

  <rect class="key" x="177" y="104" width="28" height="28"/>
  <text class="key-text" x="191" y="118">V</text>

  <rect class="key" x="210" y="104" width="28" height="28"/>
  <text class="key-text" x="224" y="118">B</text>

  <rect class="key" x="243" y="104" width="28" height="28"/>
  <text class="key-text" x="257" y="118">N</text>

  <rect class="key" x="276" y="104" width="28" height="28"/>
  <text class="key-text" x="290" y="118">M</text>

  <rect class="key" x="309" y="104" width="28" height="28"/>
  <text class="key-text" x="323" y="118">,</text>

  <rect class="key" x="342" y="104" width="28" height="28"/>
  <text class="key-text" x="356" y="118">.</text>

  <rect class="key" x="375" y="104" width="28" height="28"/>
  <text class="key-text" x="389" y="118">/</text>

  <rect class="key" x="408" y="104" width="84" height="28"/>
  <text class="key-text" x="450" y="118">SHIFT</text>

  <rect class="key-layer" x="497" y="104" width="28" height="28"/>
  <text class="key-text-small" x="511" y="118">CFG</text>

  <!-- Row 5: CTRL, WIN+ALT (purple), ALT, SPACE (6.25u), ALT, RAISE, CTRL -->
  <rect class="key" x="5" y="137" width="40" height="28"/>
  <text class="key-text" x="25" y="151">CTRL</text>

  <rect class="key-special" x="50" y="137" width="40" height="28"/>
  <text class="key-text-small" x="70" y="151">W+ALT</text>

  <rect class="key" x="95" y="137" width="40" height="28"/>
  <text class="key-text" x="115" y="151">ALT</text>

  <rect class="key" x="140" y="137" width="225" height="28"/>
  <text class="key-text" x="252.5" y="151">SPACE</text>

  <rect class="key" x="370" y="137" width="40" height="28"/>
  <text class="key-text" x="390" y="151">ALT</text>

  <rect class="key-layer" x="415" y="137" width="40" height="28"/>
  <text class="key-text-small" x="435" y="151">RAISE</text>

  <rect class="key" x="460" y="137" width="65" height="28"/>
  <text class="key-text" x="492.5" y="151">CTRL</text>
</svg>
