<?xml version="1.0" encoding="UTF-8"?>
<svg xmlns="http://www.w3.org/2000/svg" viewBox="0 0 530 175" width="530" height="175">
  <defs>
    <style>
      .key-bluetooth { fill: #1e40af; stroke: #60a5fa; stroke-width: 1; rx: 3; }
      .key-mouse { fill: #14532d; stroke: #22c55e; stroke-width: 1; rx: 3; }
      .key-media { fill: #713f12; stroke: #f59e0b; stroke-width: 1; rx: 3; }
      .key-system { fill: #7f1d1d; stroke: #ef4444; stroke-width: 1.5; rx: 3; }
      .key-layer { fill: #ea580c; stroke: #f97316; stroke-width: 1.5; rx: 3; }
      .key-toggle { fill: #581c87; stroke: #a855f7; stroke-width: 1; rx: 3; }
      .key-trans { fill: #1a1a1a; stroke: #374151; stroke-width: 1; stroke-dasharray: 2,2; rx: 3; }
      .key-text { font-family: -apple-system, BlinkMacSystemFont, 'Segoe UI', Roboto, sans-serif; font-size: 9px; font-weight: 500; fill: #ffffff; text-anchor: middle; dominant-baseline: middle; }
      .key-text-small { font-family: -apple-system, BlinkMacSystemFont, 'Segoe UI', Roboto, sans-serif; font-size: 6.5px; font-weight: 500; fill: #ffffff; text-anchor: middle; dominant-baseline: middle; }
      .key-text-trans { fill: #6b7280; }
    </style>
  </defs>

  <!-- Row 1: UND, BT0-BT4, —×4, MUTE, VOL-, VOL+, BTCLR (2u) -->
  <rect class="key-layer" x="5" y="5" width="28" height="28"/>
  <text class="key-text-small" x="19" y="19">UND</text>

  <rect class="key-bluetooth" x="38" y="5" width="28" height="28"/>
  <text class="key-text" x="52" y="19">BT0</text>

  <rect class="key-bluetooth" x="71" y="5" width="28" height="28"/>
  <text class="key-text" x="85" y="19">BT1</text>

  <rect class="key-bluetooth" x="104" y="5" width="28" height="28"/>
  <text class="key-text" x="118" y="19">BT2</text>

  <rect class="key-bluetooth" x="137" y="5" width="28" height="28"/>
  <text class="key-text" x="151" y="19">BT3</text>

  <rect class="key-bluetooth" x="170" y="5" width="28" height="28"/>
  <text class="key-text" x="184" y="19">BT4</text>

  <rect class="key-trans" x="203" y="5" width="28" height="28"/>
  <text class="key-text key-text-trans" x="217" y="19">—</text>

  <rect class="key-trans" x="236" y="5" width="28" height="28"/>
  <text class="key-text key-text-trans" x="250" y="19">—</text>

  <rect class="key-trans" x="269" y="5" width="28" height="28"/>
  <text class="key-text key-text-trans" x="283" y="19">—</text>

  <rect class="key-trans" x="302" y="5" width="28" height="28"/>
  <text class="key-text key-text-trans" x="316" y="19">—</text>

  <rect class="key-media" x="335" y="5" width="28" height="28"/>
  <text class="key-text-small" x="349" y="19">MUTE</text>

  <rect class="key-media" x="368" y="5" width="28" height="28"/>
  <text class="key-text-small" x="382" y="19">VOL-</text>

  <rect class="key-media" x="401" y="5" width="28" height="28"/>
  <text class="key-text-small" x="415" y="19">VOL+</text>

  <rect class="key-bluetooth" x="434" y="5" width="91" height="28"/>
  <text class="key-text-small" x="479.5" y="19">BTCLR</text>

  <!-- Row 2: — (1.5u), MB1, M↑, MB2, —×4, USB, —×4 (1.5u) -->
  <rect class="key-trans" x="5" y="38" width="47" height="28"/>
  <text class="key-text key-text-trans" x="28.5" y="52">—</text>

  <rect class="key-mouse" x="57" y="38" width="28" height="28"/>
  <text class="key-text" x="71" y="52">MB1</text>

  <rect class="key-mouse" x="90" y="38" width="28" height="28"/>
  <text class="key-text" x="104" y="52">M↑</text>

  <rect class="key-mouse" x="123" y="38" width="28" height="28"/>
  <text class="key-text" x="137" y="52">MB2</text>

  <rect class="key-trans" x="156" y="38" width="28" height="28"/>
  <text class="key-text key-text-trans" x="170" y="52">—</text>

  <rect class="key-trans" x="189" y="38" width="28" height="28"/>
  <text class="key-text key-text-trans" x="203" y="52">—</text>

  <rect class="key-trans" x="222" y="38" width="28" height="28"/>
  <text class="key-text key-text-trans" x="236" y="52">—</text>

  <rect class="key-trans" x="255" y="38" width="28" height="28"/>
  <text class="key-text key-text-trans" x="269" y="52">—</text>

  <rect class="key-bluetooth" x="288" y="38" width="28" height="28"/>
  <text class="key-text" x="302" y="52">USB</text>

  <rect class="key-trans" x="321" y="38" width="28" height="28"/>
  <text class="key-text key-text-trans" x="335" y="52">—</text>

  <rect class="key-trans" x="354" y="38" width="28" height="28"/>
  <text class="key-text key-text-trans" x="368" y="52">—</text>

  <rect class="key-trans" x="387" y="38" width="28" height="28"/>
  <text class="key-text key-text-trans" x="401" y="52">—</text>

  <rect class="key-trans" x="420" y="38" width="28" height="28"/>
  <text class="key-text key-text-trans" x="434" y="52">—</text>

  <rect class="key-trans" x="453" y="38" width="72" height="28"/>
  <text class="key-text key-text-trans" x="489" y="52">—</text>

  <!-- Row 3: STU (1.75u), M←, M↓, M→, —×6, NEXT, PREV, —, BOOT (2.25u) -->
  <rect class="key-system" x="5" y="71" width="54" height="28"/>
  <text class="key-text-small" x="32" y="85">STU</text>

  <rect class="key-mouse" x="64" y="71" width="28" height="28"/>
  <text class="key-text" x="78" y="85">M←</text>

  <rect class="key-mouse" x="97" y="71" width="28" height="28"/>
  <text class="key-text" x="111" y="85">M↓</text>

  <rect class="key-mouse" x="130" y="71" width="28" height="28"/>
  <text class="key-text" x="144" y="85">M→</text>

  <rect class="key-trans" x="163" y="71" width="28" height="28"/>
  <text class="key-text key-text-trans" x="177" y="85">—</text>

  <rect class="key-trans" x="196" y="71" width="28" height="28"/>
  <text class="key-text key-text-trans" x="210" y="85">—</text>

  <rect class="key-trans" x="229" y="71" width="28" height="28"/>
  <text class="key-text key-text-trans" x="243" y="85">—</text>

  <rect class="key-trans" x="262" y="71" width="28" height="28"/>
  <text class="key-text key-text-trans" x="276" y="85">—</text>

  <rect class="key-trans" x="295" y="71" width="28" height="28"/>
  <text class="key-text key-text-trans" x="309" y="85">—</text>

  <rect class="key-media" x="328" y="71" width="28" height="28"/>
  <text class="key-text-small" x="342" y="85">NEXT</text>

  <rect class="key-media" x="361" y="71" width="28" height="28"/>
  <text class="key-text-small" x="375" y="85">PREV</text>

  <rect class="key-trans" x="394" y="71" width="28" height="28"/>
  <text class="key-text key-text-trans" x="408" y="85">—</text>

  <rect class="key-system" x="427" y="71" width="98" height="28"/>
  <text class="key-text-small" x="476" y="85">BOOT</text>

  <!-- Row 4: — (2.25u), —×5, BLE, —×2, BR-, BR+, — (1.75u), — (1u) -->
  <rect class="key-trans" x="5" y="104" width="68" height="28"/>
  <text class="key-text key-text-trans" x="39" y="118">—</text>

  <rect class="key-trans" x="78" y="104" width="28" height="28"/>
  <text class="key-text key-text-trans" x="92" y="118">—</text>

  <rect class="key-trans" x="111" y="104" width="28" height="28"/>
  <text class="key-text key-text-trans" x="125" y="118">—</text>

  <rect class="key-trans" x="144" y="104" width="28" height="28"/>
  <text class="key-text key-text-trans" x="158" y="118">—</text>

  <rect class="key-trans" x="177" y="104" width="28" height="28"/>
  <text class="key-text key-text-trans" x="191" y="118">—</text>

  <rect class="key-trans" x="210" y="104" width="28" height="28"/>
  <text class="key-text key-text-trans" x="224" y="118">—</text>

  <rect class="key-bluetooth" x="243" y="104" width="28" height="28"/>
  <text class="key-text" x="257" y="118">BLE</text>

  <rect class="key-trans" x="276" y="104" width="28" height="28"/>
  <text class="key-text key-text-trans" x="290" y="118">—</text>

  <rect class="key-trans" x="309" y="104" width="28" height="28"/>
  <text class="key-text key-text-trans" x="323" y="118">—</text>

  <rect class="key-media" x="342" y="104" width="28" height="28"/>
  <text class="key-text-small" x="356" y="118">BR-</text>

  <rect class="key-media" x="375" y="104" width="28" height="28"/>
  <text class="key-text-small" x="389" y="118">BR+</text>

  <rect class="key-trans" x="408" y="104" width="28" height="28"/>
  <text class="key-text key-text-trans" x="422" y="118">—</text>

  <rect class="key-trans" x="441" y="104" width="51" height="28"/>
  <text class="key-text key-text-trans" x="466.5" y="118">—</text>

  <rect class="key-trans" x="497" y="104" width="28" height="28"/>
  <text class="key-text key-text-trans" x="511" y="118">—</text>

  <!-- Row 5: —, TALT, —, —, —, RST -->
  <rect class="key-trans" x="5" y="137" width="40" height="28"/>
  <text class="key-text key-text-trans" x="25" y="151">—</text>

  <rect class="key-toggle" x="50" y="137" width="40" height="28"/>
  <text class="key-text-small" x="70" y="151">TALT</text>

  <rect class="key-trans" x="95" y="137" width="40" height="28"/>
  <text class="key-text key-text-trans" x="115" y="151">—</text>

  <rect class="key-trans" x="140" y="137" width="225" height="28"/>
  <text class="key-text key-text-trans" x="252.5" y="151">—</text>

  <rect class="key-trans" x="370" y="137" width="40" height="28"/>
  <text class="key-text key-text-trans" x="390" y="151">—</text>

  <rect class="key-trans" x="415" y="137" width="40" height="28"/>
  <text class="key-text key-text-trans" x="435" y="151">—</text>

  <rect class="key-system" x="460" y="137" width="65" height="28"/>
  <text class="key-text" x="492.5" y="151">RST</text>
</svg>
