<?xml version="1.0" encoding="UTF-8"?>
<svg xmlns="http://www.w3.org/2000/svg" viewBox="0 0 800 300" width="800" height="300">
  <defs>
    <style>
      .key {
        fill: #2d2d2d;
        stroke: #4a4a4a;
        stroke-width: 1;
        rx: 3;
      }
      .key-text {
        font-family: -apple-system, BlinkMacSystemFont, 'Segoe UI', Roboto, sans-serif;
        font-size: 10px;
        font-weight: 500;
        fill: #ffffff;
        text-anchor: middle;
        dominant-baseline: middle;
      }
      .key-bluetooth {
        fill: #1e3a8a;
        stroke: #3b82f6;
      }
      .key-mouse {
        fill: #14532d;
        stroke: #22c55e;
      }
      .key-media {
        fill: #713f12;
        stroke: #f59e0b;
      }
      .key-system {
        fill: #7f1d1d;
        stroke: #ef4444;
      }
      .key-layer {
        fill: #581c87;
        stroke: #a855f7;
      }
      .key-transparent {
        fill: #1a1a1a;
        stroke: #374151;
        stroke-dasharray: 2,2;
      }
      .key-transparent .key-text {
        fill: #6b7280;
      }
      .title {
        font-family: -apple-system, BlinkMacSystemFont, 'Segoe UI', Roboto, sans-serif;
        font-size: 16px;
        font-weight: 600;
        fill: #ffffff;
      }
      .subtitle {
        font-family: -apple-system, BlinkMacSystemFont, 'Segoe UI', Roboto, sans-serif;
        font-size: 12px;
        fill: #9ca3af;
        font-weight: 400;
      }
    </style>
  </defs>

  <!-- Dark background -->
  <rect width="800" height="300" fill="#1a1a1a"/>

  <!-- Title -->
  <text x="40" y="25" class="title">CONFIGURATION LAYER (3)</text>
  <text x="40" y="42" class="subtitle">System Controls, Bluetooth & Mouse Management</text>

  <!-- Row 1: Tab (1.5x) + 13 standard + Backspace (2.0x) -->
  <rect x="40" y="60" width="52.5" height="35" class="key-layer"/>
  <text x="66.25" y="77" class="key-text">RGB</text>

  <rect x="97.5" y="60" width="35" height="35" class="key-bluetooth"/>
  <text x="115" y="77" class="key-text">BT0</text>

  <rect x="137.5" y="60" width="35" height="35" class="key-bluetooth"/>
  <text x="155" y="77" class="key-text">BT1</text>

  <rect x="177.5" y="60" width="35" height="35" class="key-bluetooth"/>
  <text x="195" y="77" class="key-text">BT2</text>

  <rect x="217.5" y="60" width="35" height="35" class="key-bluetooth"/>
  <text x="235" y="77" class="key-text">BT3</text>

  <rect x="257.5" y="60" width="35" height="35" class="key-bluetooth"/>
  <text x="275" y="77" class="key-text">BT4</text>

  <rect x="297.5" y="60" width="35" height="35" class="key-transparent"/>
  <text x="315" y="77" class="key-text">—</text>

  <rect x="337.5" y="60" width="35" height="35" class="key-transparent"/>
  <text x="355" y="77" class="key-text">—</text>

  <rect x="377.5" y="60" width="35" height="35" class="key-transparent"/>
  <text x="395" y="77" class="key-text">—</text>

  <rect x="417.5" y="60" width="35" height="35" class="key-transparent"/>
  <text x="435" y="77" class="key-text">—</text>

  <rect x="457.5" y="60" width="35" height="35" class="key-transparent"/>
  <text x="475" y="77" class="key-text">—</text>

  <rect x="497.5" y="60" width="35" height="35" class="key-media"/>
  <text x="515" y="77" class="key-text">MUTE</text>

  <rect x="537.5" y="60" width="35" height="35" class="key-media"/>
  <text x="555" y="77" class="key-text">VOL-</text>

  <rect x="577.5" y="60" width="70" height="35" class="key-media"/>
  <text x="612.5" y="77" class="key-text">VOL+</text>

  <rect x="652.5" y="60" width="35" height="35" class="key-transparent"/>
  <text x="670" y="77" class="key-text">—</text>

  <!-- Row 2: Caps Lock (1.75x) + 11 standard + Backslash (1.5x) + Enter (2.25x) -->
  <rect x="40" y="100" width="61.25" height="35" class="key-transparent"/>
  <text x="70.625" y="117" class="key-text">—</text>

  <rect x="106.25" y="100" width="35" height="35" class="key-mouse"/>
  <text x="123.75" y="117" class="key-text">MB1</text>

  <rect x="146.25" y="100" width="35" height="35" class="key-mouse"/>
  <text x="163.75" y="117" class="key-text">M↑</text>

  <rect x="186.25" y="100" width="35" height="35" class="key-mouse"/>
  <text x="203.75" y="117" class="key-text">MB2</text>

  <rect x="226.25" y="100" width="35" height="35" class="key-transparent"/>
  <text x="243.75" y="117" class="key-text">—</text>

  <rect x="266.25" y="100" width="35" height="35" class="key-transparent"/>
  <text x="283.75" y="117" class="key-text">—</text>

  <rect x="306.25" y="100" width="35" height="35" class="key-transparent"/>
  <text x="323.75" y="117" class="key-text">—</text>

  <rect x="346.25" y="100" width="35" height="35" class="key-transparent"/>
  <text x="363.75" y="117" class="key-text">—</text>

  <rect x="386.25" y="100" width="35" height="35" class="key-system"/>
  <text x="403.75" y="117" class="key-text">USB</text>

  <rect x="426.25" y="100" width="35" height="35" class="key-transparent"/>
  <text x="443.75" y="117" class="key-text">—</text>

  <rect x="466.25" y="100" width="35" height="35" class="key-transparent"/>
  <text x="483.75" y="117" class="key-text">—</text>

  <rect x="506.25" y="100" width="35" height="35" class="key-transparent"/>
  <text x="523.75" y="117" class="key-text">—</text>

  <rect x="546.25" y="100" width="52.5" height="35" class="key-transparent"/>
  <text x="572.5" y="117" class="key-text">—</text>

  <rect x="603.75" y="100" width="78.75" height="35" class="key-transparent"/>
  <text x="643.125" y="117" class="key-text">—</text>

  <!-- Row 3: 13 standard + Right Shift (2.75x) -->
  <rect x="40" y="140" width="35" height="35" class="key-system"/>
  <text x="57.5" y="157" class="key-text">STU</text>

  <rect x="80" y="140" width="35" height="35" class="key-mouse"/>
  <text x="97.5" y="157" class="key-text">M←</text>

  <rect x="120" y="140" width="35" height="35" class="key-mouse"/>
  <text x="137.5" y="157" class="key-text">M↓</text>

  <rect x="160" y="140" width="35" height="35" class="key-mouse"/>
  <text x="177.5" y="157" class="key-text">M→</text>

  <rect x="200" y="140" width="35" height="35" class="key-transparent"/>
  <text x="217.5" y="157" class="key-text">—</text>

  <rect x="240" y="140" width="35" height="35" class="key-transparent"/>
  <text x="257.5" y="157" class="key-text">—</text>

  <rect x="280" y="140" width="35" height="35" class="key-transparent"/>
  <text x="297.5" y="157" class="key-text">—</text>

  <rect x="320" y="140" width="35" height="35" class="key-transparent"/>
  <text x="337.5" y="157" class="key-text">—</text>

  <rect x="360" y="140" width="35" height="35" class="key-media"/>
  <text x="377.5" y="157" class="key-text">NEXT</text>

  <rect x="400" y="140" width="35" height="35" class="key-media"/>
  <text x="417.5" y="157" class="key-text">PREV</text>

  <rect x="440" y="140" width="35" height="35" class="key-transparent"/>
  <text x="457.5" y="157" class="key-text">—</text>

  <rect x="480" y="140" width="35" height="35" class="key-transparent"/>
  <text x="497.5" y="157" class="key-text">—</text>

  <rect x="520" y="140" width="96.25" height="35" class="key-transparent"/>
  <text x="568.125" y="157" class="key-text">—</text>

  <!-- Row 4: Left Shift (2.25x) + 11 standard -->
  <rect x="40" y="180" width="78.75" height="35" class="key-transparent"/>
  <text x="79.375" y="197" class="key-text">—</text>

  <rect x="123.75" y="180" width="35" height="35" class="key-transparent"/>
  <text x="141.25" y="197" class="key-text">—</text>

  <rect x="163.75" y="180" width="35" height="35" class="key-transparent"/>
  <text x="181.25" y="197" class="key-text">—</text>

  <rect x="203.75" y="180" width="35" height="35" class="key-transparent"/>
  <text x="221.25" y="197" class="key-text">—</text>

  <rect x="243.75" y="180" width="35" height="35" class="key-transparent"/>
  <text x="261.25" y="197" class="key-text">—</text>

  <rect x="283.75" y="180" width="35" height="35" class="key-transparent"/>
  <text x="301.25" y="197" class="key-text">—</text>

  <rect x="323.75" y="180" width="35" height="35" class="key-transparent"/>
  <text x="341.25" y="197" class="key-text">—</text>

  <rect x="363.75" y="180" width="35" height="35" class="key-system"/>
  <text x="381.25" y="197" class="key-text">BLE</text>

  <rect x="403.75" y="180" width="35" height="35" class="key-transparent"/>
  <text x="421.25" y="197" class="key-text">—</text>

  <rect x="443.75" y="180" width="35" height="35" class="key-transparent"/>
  <text x="461.25" y="197" class="key-text">—</text>

  <rect x="483.75" y="180" width="35" height="35" class="key-transparent"/>
  <text x="501.25" y="197" class="key-text">—</text>

  <rect x="523.75" y="180" width="35" height="35" class="key-transparent"/>
  <text x="541.25" y="197" class="key-text">—</text>

  <rect x="563.75" y="180" width="35" height="35" class="key-media"/>
  <text x="581.25" y="197" class="key-text">BRI-</text>

  <rect x="603.75" y="180" width="35" height="35" class="key-transparent"/>
  <text x="621.25" y="197" class="key-text">—</text>

  <rect x="643.75" y="180" width="35" height="35" class="key-transparent"/>
  <text x="661.25" y="197" class="key-text">—</text>

  <!-- Row 5: Ctrl (1.25x) + Win (1.25x) + Alt (1.25x) + Space (6.25x) + Fn (1.25x) + Menu (1.25x) + Ctrl (1.25x) -->
  <rect x="40" y="220" width="43.75" height="35" class="key-transparent"/>
  <text x="61.875" y="237" class="key-text">—</text>

  <rect x="88.75" y="220" width="43.75" height="35" class="key-layer"/>
  <text x="110.625" y="237" class="key-text">ALT</text>

  <rect x="137.5" y="220" width="43.75" height="35" class="key-transparent"/>
  <text x="159.375" y="237" class="key-text">—</text>

  <rect x="186.25" y="220" width="218.75" height="35" class="key-transparent"/>
  <text x="295.625" y="237" class="key-text">—</text>

  <rect x="410" y="220" width="43.75" height="35" class="key-transparent"/>
  <text x="431.875" y="237" class="key-text">—</text>

  <rect x="458.75" y="220" width="43.75" height="35" class="key-transparent"/>
  <text x="480.625" y="237" class="key-text">—</text>

  <rect x="507.5" y="220" width="43.75" height="35" class="key-system"/>
  <text x="529.375" y="237" class="key-text">RST</text>

  <!-- Legend -->
  <text x="40" y="285" style="font-family: -apple-system, BlinkMacSystemFont, 'Segoe UI', Roboto, sans-serif; font-size: 10px; fill: #9ca3af;">
    Blue: Bluetooth | Green: Mouse | Yellow: Media/Brightness | Red: System | Purple: Layer controls
  </text>
</svg>