<?xml version="1.0" encoding="UTF-8"?>
<svg xmlns="http://www.w3.org/2000/svg" viewBox="0 0 800 300" width="800" height="300">
  <defs>
    <style>
      .key {
        fill: #ffffff;
        stroke: #333333;
        stroke-width: 1.5;
        rx: 4;
      }
      .key-text {
        font-family: 'SF Mono', 'Monaco', 'Inconsolata', 'Roboto Mono', monospace;
        font-size: 10px;
        font-weight: 600;
        fill: #1a1a1a;
        text-anchor: middle;
        dominant-baseline: middle;
      }
      .layer-title {
        font-family: -apple-system, BlinkMacSystemFont, 'Segoe UI', Arial, sans-serif;
        font-size: 18px;
        font-weight: 700;
        fill: #2196f3;
      }
      .layer-subtitle {
        font-family: -apple-system, BlinkMacSystemFont, 'Segoe UI', Arial, sans-serif;
        font-size: 12px;
        fill: #666666;
      }
      .encoder {
        fill: #e3f2fd;
        stroke: #2196f3;
        stroke-width: 2;
        stroke-dasharray: 3,2;
      }
      .encoder-text {
        font-family: -apple-system, BlinkMacSystemFont, 'Segoe UI', Arial, sans-serif;
        font-size: 8px;
        fill: #2196f3;
        text-anchor: middle;
      }
      .function-key {
        fill: #e3f2fd;
        stroke: #2196f3;
        stroke-width: 1;
      }
      .nav-key {
        fill: #e8f5e8;
        stroke: #4caf50;
        stroke-width: 1;
      }
      .media-key {
        fill: #fff3e0;
        stroke: #ff9800;
        stroke-width: 1;
      }
      .mouse-key {
        fill: #fce4ec;
        stroke: #e91e63;
        stroke-width: 1;
      }
      .transparent-key {
        fill: #f5f5f5;
        stroke: #999;
        stroke-width: 1;
        stroke-dasharray: 2,2;
      }
    </style>
  </defs>

  <!-- Title -->
  <text x="10" y="25" class="layer-title">RAISE LAYER (2)</text>
  <text x="10" y="42" class="layer-subtitle">Function Keys, Navigation & Media Controls (Momentary)</text>

  <!-- Row 1: Transparent, F1-F12, Delete×2 -->
  <rect x="10" y="60" width="36" height="36" class="transparent-key"/>
  <text x="28" y="78" class="key-text" style="fill: #999;">—</text>

  <rect x="52" y="60" width="36" height="36" class="function-key"/>
  <text x="70" y="78" class="key-text">F1</text>

  <rect x="94" y="60" width="36" height="36" class="function-key"/>
  <text x="112" y="78" class="key-text">F2</text>

  <rect x="136" y="60" width="36" height="36" class="function-key"/>
  <text x="154" y="78" class="key-text">F3</text>

  <rect x="178" y="60" width="36" height="36" class="function-key"/>
  <text x="196" y="78" class="key-text">F4</text>

  <rect x="220" y="60" width="36" height="36" class="function-key"/>
  <text x="238" y="78" class="key-text">F5</text>

  <rect x="262" y="60" width="36" height="36" class="function-key"/>
  <text x="280" y="78" class="key-text">F6</text>

  <rect x="304" y="60" width="36" height="36" class="function-key"/>
  <text x="322" y="78" class="key-text">F7</text>

  <rect x="346" y="60" width="36" height="36" class="function-key"/>
  <text x="364" y="78" class="key-text">F8</text>

  <rect x="388" y="60" width="36" height="36" class="function-key"/>
  <text x="406" y="78" class="key-text">F9</text>

  <rect x="430" y="60" width="36" height="36" class="function-key"/>
  <text x="448" y="78" class="key-text">F10</text>

  <rect x="472" y="60" width="36" height="36" class="function-key"/>
  <text x="490" y="78" class="key-text">F11</text>

  <rect x="514" y="60" width="36" height="36" class="function-key"/>
  <text x="532" y="78" class="key-text">F12</text>

  <rect x="556" y="60" width="36" height="36" class="media-key"/>
  <text x="574" y="78" class="key-text">DEL</text>

  <rect x="598" y="60" width="36" height="36" class="media-key"/>
  <text x="616" y="78" class="key-text">DEL</text>

  <!-- Row 2: Transparent, Home, ↑, End, Transparent×7 -->
  <rect x="10" y="102" width="54" height="36" class="transparent-key"/>
  <text x="37" y="120" class="key-text" style="fill: #999;">—</text>

  <rect x="70" y="102" width="36" height="36" class="nav-key"/>
  <text x="88" y="120" class="key-text">HOME</text>

  <rect x="112" y="102" width="36" height="36" class="nav-key"/>
  <text x="130" y="120" class="key-text">↑</text>

  <rect x="154" y="102" width="36" height="36" class="nav-key"/>
  <text x="172" y="120" class="key-text">END</text>

  <rect x="196" y="102" width="36" height="36" class="transparent-key"/>
  <text x="214" y="120" class="key-text" style="fill: #999;">—</text>

  <rect x="238" y="102" width="36" height="36" class="transparent-key"/>
  <text x="256" y="120" class="key-text" style="fill: #999;">—</text>

  <rect x="280" y="102" width="36" height="36" class="transparent-key"/>
  <text x="298" y="120" class="key-text" style="fill: #999;">—</text>

  <rect x="322" y="102" width="36" height="36" class="transparent-key"/>
  <text x="340" y="120" class="key-text" style="fill: #999;">—</text>

  <rect x="364" y="102" width="36" height="36" class="media-key"/>
  <text x="382" y="120" class="key-text">INS</text>

  <rect x="406" y="102" width="36" height="36" class="transparent-key"/>
  <text x="424" y="120" class="key-text" style="fill: #999;">—</text>

  <rect x="448" y="102" width="36" height="36" class="media-key"/>
  <text x="466" y="120" class="key-text">PRT</text>

  <rect x="490" y="102" width="36" height="36" class="transparent-key"/>
  <text x="508" y="120" class="key-text" style="fill: #999;">—</text>

  <rect x="532" y="102" width="36" height="36" class="transparent-key"/>
  <text x="550" y="120" class="key-text" style="fill: #999;">—</text>

  <rect x="574" y="102" width="60" height="36" class="transparent-key"/>
  <text x="604" y="120" class="key-text" style="fill: #999;">—</text>

  <!-- Row 3: Caps, ←↓→, Transparent×7, Page Up, Transparent×2 -->
  <rect x="10" y="144" width="54" height="36" class="nav-key"/>
  <text x="37" y="162" class="key-text">CAPS</text>

  <rect x="70" y="144" width="36" height="36" class="nav-key"/>
  <text x="88" y="162" class="key-text">←</text>

  <rect x="112" y="144" width="36" height="36" class="nav-key"/>
  <text x="130" y="162" class="key-text">↓</text>

  <rect x="154" y="144" width="36" height="36" class="nav-key"/>
  <text x="172" y="162" class="key-text">→</text>

  <rect x="196" y="144" width="36" height="36" class="transparent-key"/>
  <text x="214" y="162" class="key-text" style="fill: #999;">—</text>

  <rect x="238" y="144" width="36" height="36" class="transparent-key"/>
  <text x="256" y="162" class="key-text" style="fill: #999;">—</text>

  <rect x="280" y="144" width="36" height="36" class="transparent-key"/>
  <text x="298" y="162" class="key-text" style="fill: #999;">—</text>

  <rect x="322" y="144" width="36" height="36" class="transparent-key"/>
  <text x="340" y="162" class="key-text" style="fill: #999;">—</text>

  <rect x="364" y="144" width="36" height="36" class="transparent-key"/>
  <text x="382" y="162" class="key-text" style="fill: #999;">—</text>

  <rect x="406" y="144" width="36" height="36" class="transparent-key"/>
  <text x="424" y="162" class="key-text" style="fill: #999;">—</text>

  <rect x="448" y="144" width="36" height="36" class="nav-key"/>
  <text x="466" y="162" class="key-text">PG↑</text>

  <rect x="490" y="144" width="36" height="36" class="transparent-key"/>
  <text x="508" y="162" class="key-text" style="fill: #999;">—</text>

  <rect x="532" y="144" width="36" height="36" class="transparent-key"/>
  <text x="550" y="162" class="key-text" style="fill: #999;">—</text>

  <rect x="574" y="144" width="60" height="36" class="transparent-key"/>
  <text x="604" y="162" class="key-text" style="fill: #999;">—</text>

  <!-- Row 4: Transparent, MB4, Transparent, MB5, Transparent×8, Page Down, Transparent×2 -->
  <rect x="10" y="186" width="54" height="36" class="transparent-key"/>
  <text x="37" y="204" class="key-text" style="fill: #999;">—</text>

  <rect x="70" y="186" width="54" height="36" class="mouse-key"/>
  <text x="97" y="204" class="key-text">MB4</text>

  <rect x="130" y="186" width="36" height="36" class="transparent-key"/>
  <text x="148" y="204" class="key-text" style="fill: #999;">—</text>

  <rect x="172" y="186" width="36" height="36" class="mouse-key"/>
  <text x="190" y="204" class="key-text">MB5</text>

  <rect x="214" y="186" width="36" height="36" class="transparent-key"/>
  <text x="232" y="204" class="key-text" style="fill: #999;">—</text>

  <rect x="256" y="186" width="36" height="36" class="transparent-key"/>
  <text x="274" y="204" class="key-text" style="fill: #999;">—</text>

  <rect x="298" y="186" width="36" height="36" class="transparent-key"/>
  <text x="316" y="204" class="key-text" style="fill: #999;">—</text>

  <rect x="340" y="186" width="36" height="36" class="transparent-key"/>
  <text x="358" y="204" class="key-text" style="fill: #999;">—</text>

  <rect x="382" y="186" width="36" height="36" class="transparent-key"/>
  <text x="400" y="204" class="key-text" style="fill: #999;">—</text>

  <rect x="424" y="186" width="36" height="36" class="transparent-key"/>
  <text x="442" y="204" class="key-text" style="fill: #999;">—</text>

  <rect x="466" y="186" width="36" height="36" class="transparent-key"/>
  <text x="484" y="204" class="key-text" style="fill: #999;">—</text>

  <rect x="508" y="186" width="36" height="36" class="nav-key"/>
  <text x="526" y="204" class="key-text">PG↓</text>

  <rect x="550" y="186" width="54" height="36" class="transparent-key"/>
  <text x="577" y="204" class="key-text" style="fill: #999;">—</text>

  <rect x="610" y="186" width="54" height="36" class="transparent-key"/>
  <text x="637" y="204" class="key-text" style="fill: #999;">—</text>

  <!-- Row 5: All Transparent -->
  <rect x="10" y="228" width="48" height="36" class="transparent-key"/>
  <text x="34" y="246" class="key-text" style="fill: #999;">—</text>

  <rect x="62" y="228" width="48" height="36" class="transparent-key"/>
  <text x="86" y="246" class="key-text" style="fill: #999;">—</text>

  <rect x="114" y="228" width="48" height="36" class="transparent-key"/>
  <text x="138" y="246" class="key-text" style="fill: #999;">—</text>

  <rect x="166" y="228" width="54" height="36" class="transparent-key"/>
  <text x="193" y="246" class="key-text" style="fill: #999;">—</text>

  <rect x="224" y="228" width="54" height="36" class="transparent-key"/>
  <text x="251" y="246" class="key-text" style="fill: #999;">—</text>

  <rect x="282" y="228" width="54" height="36" class="transparent-key"/>
  <text x="309" y="246" class="key-text" style="fill: #999;">—</text>

  <rect x="340" y="228" width="54" height="36" class="transparent-key"/>
  <text x="367" y="246" class="key-text" style="fill: #999;">—</text>

  <rect x="398" y="228" width="48" height="36" class="transparent-key"/>
  <text x="422" y="246" class="key-text" style="fill: #999;">—</text>

  <rect x="450" y="228" width="54" height="36" class="transparent-key"/>
  <text x="477" y="246" class="key-text" style="fill: #999;">—</text>

  <rect x="508" y="228" width="48" height="36" class="transparent-key"/>
  <text x="532" y="246" class="key-text" style="fill: #999;">—</text>

  <!-- Encoder indicator -->
  <circle cx="680" cy="150" r="25" class="encoder"/>
  <text x="680" y="150" class="encoder-text">ENC</text>
  <text x="680" y="160" class="encoder-text" style="font-size: 7px;">⏯</text>
  <text x="680" y="120" class="encoder-text" style="font-size: 7px;">VOL↑</text>
  <text x="680" y="180" class="encoder-text" style="font-size: 7px;">VOL↓</text>

  <!-- Legend -->
  <g transform="translate(10, 280)">
    <rect x="0" y="0" width="12" height="12" class="function-key"/>
    <text x="16" y="10" style="font-size: 10px; fill: #666;">Function keys</text>

    <rect x="100" y="0" width="12" height="12" class="nav-key"/>
    <text x="116" y="10" style="font-size: 10px; fill: #666;">Navigation</text>

    <rect x="200" y="0" width="12" height="12" class="media-key"/>
    <text x="216" y="10" style="font-size: 10px; fill: #666;">Media controls</text>

    <rect x="310" y="0" width="12" height="12" class="mouse-key"/>
    <text x="326" y="10" style="font-size: 10px; fill: #666;">Mouse buttons</text>

    <rect x="420" y="0" width="12" height="12" class="transparent-key"/>
    <text x="436" y="10" style="font-size: 10px; fill: #666;">Transparent (pass-through)</text>
  </g>
</svg>