<?xml version="1.0" encoding="UTF-8"?>
<svg xmlns="http://www.w3.org/2000/svg" viewBox="0 0 800 320" width="800" height="320">
  <defs>
    <style>
      .key-rect {
        fill: #ffffff;
        stroke: #333333;
        stroke-width: 1;
        rx: 4;
        filter: drop-shadow(0 1px 2px rgba(0,0,0,0.1));
      }
      .key-text {
        font-family: -apple-system, BlinkMacSystemFont, 'Segoe UI', Roboto, sans-serif;
        font-size: 11px;
        font-weight: 500;
        fill: #1a1a1a;
        text-anchor: middle;
        dominant-baseline: middle;
      }
      .layer-title {
        font-family: -apple-system, BlinkMacSystemFont, 'Segoe UI', Roboto, sans-serif;
        font-size: 20px;
        font-weight: 600;
        fill: #0ea5e9;
      }
      .layer-subtitle {
        font-family: -apple-system, BlinkMacSystemFont, 'Segoe UI', Roboto, sans-serif;
        font-size: 13px;
        fill: #6b7280;
        font-weight: 400;
      }
      .key-1u { width: 46px; height: 46px; }
      .key-1u-25 { width: 57px; height: 46px; }
      .key-1u-5 { width: 69px; height: 46px; }
      .key-2u { width: 92px; height: 46px; }
      .key-2u-25 { width: 103px; height: 46px; }
      .key-2u-75 { width: 138px; height: 46px; }
      .key-6u { width: 323px; height: 46px; }
      .key-modifier { fill: #f8fafc; }
      .key-function { fill: #dbeafe; }
      .key-nav { fill: #dcfce7; }
      .key-media { fill: #fef3c7; }
      .key-mouse { fill: #fce7f3; }
      .key-transparent { fill: #f9fafb; stroke: #d1d5db; stroke-dasharray: 2,2; }
      .key-transparent .key-text { fill: #9ca3af; }
      .encoder-rect {
        fill: #dbeafe;
        stroke: #0284c7;
        stroke-width: 2;
        rx: 8;
        stroke-dasharray: 4,2;
      }
    </style>
  </defs>

  <!-- Title -->
  <text x="40" y="35" class="layer-title">RAISE LAYER (2)</text>
  <text x="40" y="55" class="layer-subtitle">Function Keys, Navigation & Media Controls</text>

  <!-- Row 1 -->
  <rect x="40" y="80" width="46" height="46" class="key-transparent"/>
  <text x="63" y="103" class="key-text">—</text>

  <rect x="92" y="80" width="46" height="46" class="key-function"/>
  <text x="115" y="103" class="key-text">F1</text>

  <rect x="144" y="80" width="46" height="46" class="key-function"/>
  <text x="167" y="103" class="key-text">F2</text>

  <rect x="196" y="80" width="46" height="46" class="key-function"/>
  <text x="219" y="103" class="key-text">F3</text>

  <rect x="248" y="80" width="46" height="46" class="key-function"/>
  <text x="271" y="103" class="key-text">F4</text>

  <rect x="300" y="80" width="46" height="46" class="key-function"/>
  <text x="323" y="103" class="key-text">F5</text>

  <rect x="352" y="80" width="46" height="46" class="key-function"/>
  <text x="375" y="103" class="key-text">F6</text>

  <rect x="404" y="80" width="46" height="46" class="key-function"/>
  <text x="427" y="103" class="key-text">F7</text>

  <rect x="456" y="80" width="46" height="46" class="key-function"/>
  <text x="479" y="103" class="key-text">F8</text>

  <rect x="508" y="80" width="46" height="46" class="key-function"/>
  <text x="531" y="103" class="key-text">F9</text>

  <rect x="560" y="80" width="46" height="46" class="key-function"/>
  <text x="583" y="103" class="key-text">F10</text>

  <rect x="612" y="80" width="46" height="46" class="key-function"/>
  <text x="635" y="103" class="key-text">F11</text>

  <rect x="664" y="80" width="46" height="46" class="key-function"/>
  <text x="687" y="103" class="key-text">F12</text>

  <rect x="716" y="80" width="46" height="46" class="key-media"/>
  <text x="739" y="103" class="key-text">DEL</text>

  <!-- Row 2 -->
  <rect x="40" y="132" width="69" height="46" class="key-transparent"/>
  <text x="74" y="155" class="key-text">—</text>

  <rect x="115" y="132" width="46" height="46" class="key-nav"/>
  <text x="138" y="155" class="key-text">HOME</text>

  <rect x="167" y="132" width="46" height="46" class="key-nav"/>
  <text x="190" y="155" class="key-text">↑</text>

  <rect x="219" y="132" width="46" height="46" class="key-nav"/>
  <text x="242" y="155" class="key-text">END</text>

  <rect x="271" y="132" width="46" height="46" class="key-transparent"/>
  <text x="294" y="155" class="key-text">—</text>

  <rect x="323" y="132" width="46" height="46" class="key-transparent"/>
  <text x="346" y="155" class="key-text">—</text>

  <rect x="375" y="132" width="46" height="46" class="key-transparent"/>
  <text x="398" y="155" class="key-text">—</text>

  <rect x="427" y="132" width="46" height="46" class="key-transparent"/>
  <text x="450" y="155" class="key-text">—</text>

  <rect x="479" y="132" width="46" height="46" class="key-media"/>
  <text x="502" y="155" class="key-text">INS</text>

  <rect x="531" y="132" width="46" height="46" class="key-transparent"/>
  <text x="554" y="155" class="key-text">—</text>

  <rect x="583" y="132" width="46" height="46" class="key-media"/>
  <text x="606" y="155" class="key-text">PRT</text>

  <rect x="635" y="132" width="46" height="46" class="key-transparent"/>
  <text x="658" y="155" class="key-text">—</text>

  <rect x="687" y="132" width="46" height="46" class="key-transparent"/>
  <text x="710" y="155" class="key-text">—</text>

  <rect x="739" y="132" width="57" height="46" class="key-transparent"/>
  <text x="767" y="155" class="key-text">—</text>

  <!-- Row 3 -->
  <rect x="40" y="184" width="69" height="46" class="key-nav"/>
  <text x="74" y="207" class="key-text">CAPS</text>

  <rect x="115" y="184" width="46" height="46" class="key-nav"/>
  <text x="138" y="207" class="key-text">←</text>

  <rect x="167" y="184" width="46" height="46" class="key-nav"/>
  <text x="190" y="207" class="key-text">↓</text>

  <rect x="219" y="184" width="46" height="46" class="key-nav"/>
  <text x="242" y="207" class="key-text">→</text>

  <rect x="271" y="184" width="46" height="46" class="key-transparent"/>
  <text x="294" y="207" class="key-text">—</text>

  <rect x="323" y="184" width="46" height="46" class="key-transparent"/>
  <text x="346" y="207" class="key-text">—</text>

  <rect x="375" y="184" width="46" height="46" class="key-transparent"/>
  <text x="398" y="207" class="key-text">—</text>

  <rect x="427" y="184" width="46" height="46" class="key-transparent"/>
  <text x="450" y="207" class="key-text">—</text>

  <rect x="479" y="184" width="46" height="46" class="key-transparent"/>
  <text x="502" y="207" class="key-text">—</text>

  <rect x="531" y="184" width="46" height="46" class="key-transparent"/>
  <text x="554" y="207" class="key-text">—</text>

  <rect x="583" y="184" width="46" height="46" class="key-nav"/>
  <text x="606" y="207" class="key-text">PG↑</text>

  <rect x="635" y="184" width="46" height="46" class="key-transparent"/>
  <text x="658" y="207" class="key-text">—</text>

  <rect x="687" y="184" width="46" height="46" class="key-transparent"/>
  <text x="710" y="207" class="key-text">—</text>

  <rect x="739" y="184" width="57" height="46" class="key-transparent"/>
  <text x="767" y="207" class="key-text">—</text>

  <!-- Row 4 -->
  <rect x="40" y="236" width="92" height="46" class="key-transparent"/>
  <text x="86" y="259" class="key-text">—</text>

  <rect x="138" y="236" width="92" height="46" class="key-mouse"/>
  <text x="184" y="259" class="key-text">MB4</text>

  <rect x="236" y="236" width="46" height="46" class="key-transparent"/>
  <text x="259" y="259" class="key-text">—</text>

  <rect x="288" y="236" width="46" height="46" class="key-mouse"/>
  <text x="311" y="259" class="key-text">MB5</text>

  <rect x="340" y="236" width="46" height="46" class="key-transparent"/>
  <text x="363" y="259" class="key-text">—</text>

  <rect x="392" y="236" width="46" height="46" class="key-transparent"/>
  <text x="415" y="259" class="key-text">—</text>

  <rect x="444" y="236" width="46" height="46" class="key-transparent"/>
  <text x="467" y="259" class="key-text">—</text>

  <rect x="496" y="236" width="46" height="46" class="key-transparent"/>
  <text x="519" y="259" class="key-text">—</text>

  <rect x="548" y="236" width="46" height="46" class="key-transparent"/>
  <text x="571" y="259" class="key-text">—</text>

  <rect x="600" y="236" width="46" height="46" class="key-transparent"/>
  <text x="623" y="259" class="key-text">—</text>

  <rect x="652" y="236" width="46" height="46" class="key-nav"/>
  <text x="675" y="259" class="key-text">PG↓</text>

  <rect x="704" y="236" width="46" height="46" class="key-transparent"/>
  <text x="727" y="259" class="key-text">—</text>

  <rect x="756" y="236" width="57" height="46" class="key-transparent"/>
  <text x="784" y="259" class="key-text">—</text>

  <!-- Row 5 -->
  <rect x="40" y="288" width="57" height="46" class="key-transparent"/>
  <text x="68" y="311" class="key-text">—</text>

  <rect x="101" y="288" width="57" height="46" class="key-transparent"/>
  <text x="129" y="311" class="key-text">—</text>

  <rect x="162" y="288" width="57" height="46" class="key-transparent"/>
  <text x="190" y="311" class="key-text">—</text>

  <rect x="223" y="288" width="161" height="46" class="key-transparent"/>
  <text x="303" y="311" class="key-text">—</text>

  <rect x="390" y="288" width="161" height="46" class="key-transparent"/>
  <text x="470" y="311" class="key-text">—</text>

  <rect x="557" y="288" width="57" height="46" class="key-transparent"/>
  <text x="585" y="311" class="key-text">—</text>

  <rect x="618" y="288" width="69" height="46" class="key-transparent"/>
  <text x="652" y="311" class="key-text">—</text>

  <rect x="693" y="288" width="57" height="46" class="key-transparent"/>
  <text x="721" y="311" class="key-text">—</text>

  <!-- Encoder indicator -->
  <rect x="640" y="200" width="60" height="60" class="encoder-rect"/>
  <text x="670" y="225" class="key-text" style="font-weight: 600;">ENC</text>
  <text x="670" y="240" class="key-text" style="font-size: 9px;">⏯</text>

  <!-- Legend -->
  <text x="40" y="355" style="font-family: -apple-system, BlinkMacSystemFont, 'Segoe UI', Roboto, sans-serif; font-size: 11px; fill: #6b7280;">
    Blue: Function keys | Green: Navigation | Yellow: Media | Pink: Mouse buttons | Gray: Transparent (pass-through)
  </text>
</svg>