<?xml version="1.0" encoding="UTF-8"?>
<svg xmlns="http://www.w3.org/2000/svg" viewBox="0 0 800 340" width="800" height="340">
  <defs>
    <style>
      .key {
        fill: #2d2d2d;
        stroke: #4a4a4a;
        stroke-width: 1;
        rx: 3;
      }
      .key-text {
        font-family: -apple-system, BlinkMacSystemFont, 'Segoe UI', Roboto, sans-serif;
        font-size: 10px;
        font-weight: 500;
        fill: #ffffff;
        text-anchor: middle;
        dominant-baseline: middle;
      }
      .key-function {
        fill: #1e3a8a;
        stroke: #3b82f6;
      }
      .key-nav {
        fill: #14532d;
        stroke: #22c55e;
      }
      .key-media {
        fill: #713f12;
        stroke: #f59e0b;
      }
      .key-mouse {
        fill: #831843;
        stroke: #ec4899;
      }
      .key-transparent {
        fill: #1a1a1a;
        stroke: #374151;
        stroke-dasharray: 2,2;
      }
      .key-transparent .key-text {
        fill: #6b7280;
      }
      .encoder {
        fill: #374151;
        stroke: #6b7280;
        stroke-width: 2;
        stroke-dasharray: 3,2;
      }
      .encoder-text {
        font-family: -apple-system, BlinkMacSystemFont, 'Segoe UI', Roboto, sans-serif;
        font-size: 9px;
        fill: #d1d5db;
        text-anchor: middle;
        dominant-baseline: middle;
      }
      .title {
        font-family: -apple-system, BlinkMacSystemFont, 'Segoe UI', Roboto, sans-serif;
        font-size: 16px;
        font-weight: 600;
        fill: #ffffff;
      }
      .subtitle {
        font-family: -apple-system, BlinkMacSystemFont, 'Segoe UI', Roboto, sans-serif;
        font-size: 12px;
        fill: #9ca3af;
        font-weight: 400;
      }
    </style>
  </defs>

  <!-- Dark background -->
  <rect width="800" height="340" fill="#1a1a1a"/>

  <!-- Title -->
  <text x="40" y="30" class="title">RAISE LAYER (2)</text>
  <text x="40" y="50" class="subtitle">Function Keys, Navigation & Media Controls</text>

  <!-- Row 1 -->
  <rect x="40" y="70" width="40" height="40" class="key-transparent"/>
  <text x="60" y="90" class="key-text">—</text>

  <rect x="85" y="70" width="40" height="40" class="key-function"/>
  <text x="105" y="90" class="key-text">F1</text>

  <rect x="130" y="70" width="40" height="40" class="key-function"/>
  <text x="150" y="90" class="key-text">F2</text>

  <rect x="175" y="70" width="40" height="40" class="key-function"/>
  <text x="195" y="90" class="key-text">F3</text>

  <rect x="220" y="70" width="40" height="40" class="key-function"/>
  <text x="240" y="90" class="key-text">F4</text>

  <rect x="265" y="70" width="40" height="40" class="key-function"/>
  <text x="285" y="90" class="key-text">F5</text>

  <rect x="310" y="70" width="40" height="40" class="key-function"/>
  <text x="330" y="90" class="key-text">F6</text>

  <rect x="355" y="70" width="40" height="40" class="key-function"/>
  <text x="375" y="90" class="key-text">F7</text>

  <rect x="400" y="70" width="40" height="40" class="key-function"/>
  <text x="420" y="90" class="key-text">F8</text>

  <rect x="445" y="70" width="40" height="40" class="key-function"/>
  <text x="465" y="90" class="key-text">F9</text>

  <rect x="490" y="70" width="40" height="40" class="key-function"/>
  <text x="510" y="90" class="key-text">F10</text>

  <rect x="535" y="70" width="40" height="40" class="key-function"/>
  <text x="555" y="90" class="key-text">F11</text>

  <rect x="580" y="70" width="40" height="40" class="key-function"/>
  <text x="600" y="90" class="key-text">F12</text>

  <rect x="625" y="70" width="40" height="40" class="key-media"/>
  <text x="645" y="90" class="key-text">DEL</text>

  <rect x="670" y="70" width="40" height="40" class="key-media"/>
  <text x="690" y="90" class="key-text">DEL</text>

  <!-- Row 2 -->
  <rect x="40" y="115" width="60" height="40" class="key-transparent"/>
  <text x="70" y="135" class="key-text">—</text>

  <rect x="105" y="115" width="40" height="40" class="key-nav"/>
  <text x="125" y="135" class="key-text">HOME</text>

  <rect x="150" y="115" width="40" height="40" class="key-nav"/>
  <text x="170" y="135" class="key-text">↑</text>

  <rect x="195" y="115" width="40" height="40" class="key-nav"/>
  <text x="215" y="135" class="key-text">END</text>

  <rect x="240" y="115" width="40" height="40" class="key-transparent"/>
  <text x="260" y="135" class="key-text">—</text>

  <rect x="285" y="115" width="40" height="40" class="key-transparent"/>
  <text x="305" y="135" class="key-text">—</text>

  <rect x="330" y="115" width="40" height="40" class="key-transparent"/>
  <text x="350" y="135" class="key-text">—</text>

  <rect x="375" y="115" width="40" height="40" class="key-transparent"/>
  <text x="395" y="135" class="key-text">—</text>

  <rect x="420" y="115" width="40" height="40" class="key-media"/>
  <text x="440" y="135" class="key-text">INS</text>

  <rect x="465" y="115" width="40" height="40" class="key-transparent"/>
  <text x="485" y="135" class="key-text">—</text>

  <rect x="510" y="115" width="40" height="40" class="key-media"/>
  <text x="530" y="135" class="key-text">PRT</text>

  <rect x="555" y="115" width="40" height="40" class="key-transparent"/>
  <text x="575" y="135" class="key-text">—</text>

  <rect x="600" y="115" width="40" height="40" class="key-transparent"/>
  <text x="620" y="135" class="key-text">—</text>

  <rect x="645" y="115" width="65" height="40" class="key-transparent"/>
  <text x="677" y="135" class="key-text">—</text>

  <!-- Row 3 -->
  <rect x="40" y="160" width="60" height="40" class="key-nav"/>
  <text x="70" y="180" class="key-text">CAPS</text>

  <rect x="105" y="160" width="40" height="40" class="key-nav"/>
  <text x="125" y="180" class="key-text">←</text>

  <rect x="150" y="160" width="40" height="40" class="key-nav"/>
  <text x="170" y="180" class="key-text">↓</text>

  <rect x="195" y="160" width="40" height="40" class="key-nav"/>
  <text x="215" y="180" class="key-text">→</text>

  <rect x="240" y="160" width="40" height="40" class="key-transparent"/>
  <text x="260" y="180" class="key-text">—</text>

  <rect x="285" y="160" width="40" height="40" class="key-transparent"/>
  <text x="305" y="180" class="key-text">—</text>

  <rect x="330" y="160" width="40" height="40" class="key-transparent"/>
  <text x="350" y="180" class="key-text">—</text>

  <rect x="375" y="160" width="40" height="40" class="key-transparent"/>
  <text x="395" y="180" class="key-text">—</text>

  <rect x="420" y="160" width="40" height="40" class="key-transparent"/>
  <text x="440" y="180" class="key-text">—</text>

  <rect x="465" y="160" width="40" height="40" class="key-transparent"/>
  <text x="485" y="180" class="key-text">—</text>

  <rect x="510" y="160" width="40" height="40" class="key-transparent"/>
  <text x="530" y="180" class="key-text">—</text>

  <rect x="555" y="160" width="40" height="40" class="key-nav"/>
  <text x="575" y="180" class="key-text">PG↑</text>

  <rect x="600" y="160" width="40" height="40" class="key-transparent"/>
  <text x="620" y="180" class="key-text">—</text>

  <rect x="645" y="160" width="65" height="40" class="key-transparent"/>
  <text x="677" y="180" class="key-text">—</text>

  <!-- Row 4 -->
  <rect x="40" y="205" width="75" height="40" class="key-transparent"/>
  <text x="77" y="225" class="key-text">—</text>

  <rect x="120" y="205" width="75" height="40" class="key-mouse"/>
  <text x="157" y="225" class="key-text">MB4</text>

  <rect x="200" y="205" width="40" height="40" class="key-transparent"/>
  <text x="220" y="225" class="key-text">—</text>

  <rect x="245" y="205" width="40" height="40" class="key-mouse"/>
  <text x="265" y="225" class="key-text">MB5</text>

  <rect x="290" y="205" width="40" height="40" class="key-transparent"/>
  <text x="310" y="225" class="key-text">—</text>

  <rect x="335" y="205" width="40" height="40" class="key-transparent"/>
  <text x="355" y="225" class="key-text">—</text>

  <rect x="380" y="205" width="40" height="40" class="key-transparent"/>
  <text x="400" y="225" class="key-text">—</text>

  <rect x="425" y="205" width="40" height="40" class="key-transparent"/>
  <text x="445" y="225" class="key-text">—</text>

  <rect x="470" y="205" width="40" height="40" class="key-transparent"/>
  <text x="490" y="225" class="key-text">—</text>

  <rect x="515" y="205" width="40" height="40" class="key-transparent"/>
  <text x="535" y="225" class="key-text">—</text>

  <rect x="560" y="205" width="40" height="40" class="key-transparent"/>
  <text x="580" y="225" class="key-text">—</text>

  <rect x="605" y="205" width="40" height="40" class="key-nav"/>
  <text x="625" y="225" class="key-text">PG↓</text>

  <rect x="650" y="205" width="75" height="40" class="key-transparent"/>
  <text x="687" y="225" class="key-text">—</text>

  <rect x="730" y="205" width="50" height="40" class="key-transparent"/>
  <text x="755" y="225" class="key-text">—</text>

  <!-- Row 5 -->
  <rect x="40" y="250" width="50" height="40" class="key-transparent"/>
  <text x="65" y="270" class="key-text">—</text>

  <rect x="95" y="250" width="50" height="40" class="key-transparent"/>
  <text x="120" y="270" class="key-text">—</text>

  <rect x="150" y="250" width="50" height="40" class="key-transparent"/>
  <text x="175" y="270" class="key-text">—</text>

  <rect x="205" y="250" width="200" height="40" class="key-transparent"/>
  <text x="305" y="270" class="key-text">—</text>

  <rect x="410" y="250" width="200" height="40" class="key-transparent"/>
  <text x="510" y="270" class="key-text">—</text>

  <rect x="615" y="250" width="50" height="40" class="key-transparent"/>
  <text x="640" y="270" class="key-text">—</text>

  <rect x="670" y="250" width="60" height="40" class="key-transparent"/>
  <text x="700" y="270" class="key-text">—</text>

  <rect x="735" y="250" width="50" height="40" class="key-transparent"/>
  <text x="760" y="270" class="key-text">—</text>

  <!-- Encoder -->
  <circle cx="750" cy="140" r="25" class="encoder"/>
  <text x="750" y="140" class="encoder-text">ENC</text>
  <text x="750" y="150" class="encoder-text" style="font-size: 7px;">⏯</text>

  <!-- Legend -->
  <text x="40" y="320" style="font-family: -apple-system, BlinkMacSystemFont, 'Segoe UI', Roboto, sans-serif; font-size: 10px; fill: #9ca3af;">
    Blue: Function keys | Green: Navigation | Yellow: Media | Pink: Mouse buttons | Gray: Transparent (pass-through)
  </text>
</svg>