<?xml version="1.0" encoding="UTF-8"?>
<svg xmlns="http://www.w3.org/2000/svg" viewBox="0 0 530 175" width="530" height="175">
  <defs>
    <style>
      .key-function { fill: #1e3a8a; stroke: #3b82f6; stroke-width: 1; rx: 3; }
      .key-nav { fill: #14532d; stroke: #22c55e; stroke-width: 1; rx: 3; }
      .key-media { fill: #713f12; stroke: #f59e0b; stroke-width: 1; rx: 3; }
      .key-mouse { fill: #831843; stroke: #ec4899; stroke-width: 1; rx: 3; }
      .key-trans { fill: #1a1a1a; stroke: #374151; stroke-width: 1; stroke-dasharray: 2,2; rx: 3; }
      .key-text { font-family: -apple-system, BlinkMacSystemFont, 'Segoe UI', Roboto, sans-serif; font-size: 9px; font-weight: 500; fill: #ffffff; text-anchor: middle; dominant-baseline: middle; }
      .key-text-small { font-family: -apple-system, BlinkMacSystemFont, 'Segoe UI', Roboto, sans-serif; font-size: 7px; font-weight: 500; fill: #ffffff; text-anchor: middle; dominant-baseline: middle; }
      .key-text-trans { fill: #6b7280; }
    </style>
  </defs>

  <!-- Row 1: trans, F1-F12, DEL (2u) -->
  <rect class="key-trans" x="5" y="5" width="28" height="28"/>
  <text class="key-text key-text-trans" x="19" y="19">—</text>

  <rect class="key-function" x="38" y="5" width="28" height="28"/>
  <text class="key-text" x="52" y="19">F1</text>

  <rect class="key-function" x="71" y="5" width="28" height="28"/>
  <text class="key-text" x="85" y="19">F2</text>

  <rect class="key-function" x="104" y="5" width="28" height="28"/>
  <text class="key-text" x="118" y="19">F3</text>

  <rect class="key-function" x="137" y="5" width="28" height="28"/>
  <text class="key-text" x="151" y="19">F4</text>

  <rect class="key-function" x="170" y="5" width="28" height="28"/>
  <text class="key-text" x="184" y="19">F5</text>

  <rect class="key-function" x="203" y="5" width="28" height="28"/>
  <text class="key-text" x="217" y="19">F6</text>

  <rect class="key-function" x="236" y="5" width="28" height="28"/>
  <text class="key-text" x="250" y="19">F7</text>

  <rect class="key-function" x="269" y="5" width="28" height="28"/>
  <text class="key-text" x="283" y="19">F8</text>

  <rect class="key-function" x="302" y="5" width="28" height="28"/>
  <text class="key-text" x="316" y="19">F9</text>

  <rect class="key-function" x="335" y="5" width="28" height="28"/>
  <text class="key-text" x="349" y="19">F10</text>

  <rect class="key-function" x="368" y="5" width="28" height="28"/>
  <text class="key-text" x="382" y="19">F11</text>

  <rect class="key-function" x="401" y="5" width="28" height="28"/>
  <text class="key-text" x="415" y="19">F12</text>

  <rect class="key-media" x="434" y="5" width="91" height="28"/>
  <text class="key-text" x="479.5" y="19">DEL</text>

  <!-- Row 2: trans (1.5u), HOME, UP, END, trans×4, INS, trans, PSCRN, trans×2 (1.5u) -->
  <rect class="key-trans" x="5" y="38" width="47" height="28"/>
  <text class="key-text key-text-trans" x="28.5" y="52">—</text>

  <rect class="key-nav" x="57" y="38" width="28" height="28"/>
  <text class="key-text-small" x="71" y="52">HOME</text>

  <rect class="key-nav" x="90" y="38" width="28" height="28"/>
  <text class="key-text" x="104" y="52">↑</text>

  <rect class="key-nav" x="123" y="38" width="28" height="28"/>
  <text class="key-text" x="137" y="52">END</text>

  <rect class="key-trans" x="156" y="38" width="28" height="28"/>
  <text class="key-text key-text-trans" x="170" y="52">—</text>

  <rect class="key-trans" x="189" y="38" width="28" height="28"/>
  <text class="key-text key-text-trans" x="203" y="52">—</text>

  <rect class="key-trans" x="222" y="38" width="28" height="28"/>
  <text class="key-text key-text-trans" x="236" y="52">—</text>

  <rect class="key-trans" x="255" y="38" width="28" height="28"/>
  <text class="key-text key-text-trans" x="269" y="52">—</text>

  <rect class="key-media" x="288" y="38" width="28" height="28"/>
  <text class="key-text" x="302" y="52">INS</text>

  <rect class="key-trans" x="321" y="38" width="28" height="28"/>
  <text class="key-text key-text-trans" x="335" y="52">—</text>

  <rect class="key-media" x="354" y="38" width="28" height="28"/>
  <text class="key-text-small" x="368" y="52">PSCRN</text>

  <rect class="key-trans" x="387" y="38" width="28" height="28"/>
  <text class="key-text key-text-trans" x="401" y="52">—</text>

  <rect class="key-trans" x="420" y="38" width="28" height="28"/>
  <text class="key-text key-text-trans" x="434" y="52">—</text>

  <rect class="key-trans" x="453" y="38" width="72" height="28"/>
  <text class="key-text key-text-trans" x="489" y="52">—</text>

  <!-- Row 3: CAPS (1.75u), LEFT, DOWN, RIGHT, trans×6, PG_UP, trans, trans (2.25u) -->
  <rect class="key-nav" x="5" y="71" width="54" height="28"/>
  <text class="key-text" x="32" y="85">CAPS</text>

  <rect class="key-nav" x="64" y="71" width="28" height="28"/>
  <text class="key-text" x="78" y="85">←</text>

  <rect class="key-nav" x="97" y="71" width="28" height="28"/>
  <text class="key-text" x="111" y="85">↓</text>

  <rect class="key-nav" x="130" y="71" width="28" height="28"/>
  <text class="key-text" x="144" y="85">→</text>

  <rect class="key-trans" x="163" y="71" width="28" height="28"/>
  <text class="key-text key-text-trans" x="177" y="85">—</text>

  <rect class="key-trans" x="196" y="71" width="28" height="28"/>
  <text class="key-text key-text-trans" x="210" y="85">—</text>

  <rect class="key-trans" x="229" y="71" width="28" height="28"/>
  <text class="key-text key-text-trans" x="243" y="85">—</text>

  <rect class="key-trans" x="262" y="71" width="28" height="28"/>
  <text class="key-text key-text-trans" x="276" y="85">—</text>

  <rect class="key-trans" x="295" y="71" width="28" height="28"/>
  <text class="key-text key-text-trans" x="309" y="85">—</text>

  <rect class="key-trans" x="328" y="71" width="28" height="28"/>
  <text class="key-text key-text-trans" x="342" y="85">—</text>

  <rect class="key-trans" x="361" y="71" width="28" height="28"/>
  <text class="key-text key-text-trans" x="375" y="85">—</text>

  <rect class="key-nav" x="394" y="71" width="28" height="28"/>
  <text class="key-text" x="408" y="85">PG↑</text>

  <rect class="key-trans" x="427" y="71" width="98" height="28"/>
  <text class="key-text key-text-trans" x="476" y="85">—</text>

  <!-- Row 4: trans (2.25u), MB4, trans, MB5, trans×6, PG_DN, trans (1.75u), trans (1u) -->
  <rect class="key-trans" x="5" y="104" width="68" height="28"/>
  <text class="key-text key-text-trans" x="39" y="118">—</text>

  <rect class="key-mouse" x="78" y="104" width="28" height="28"/>
  <text class="key-text" x="92" y="118">MB4</text>

  <rect class="key-trans" x="111" y="104" width="28" height="28"/>
  <text class="key-text key-text-trans" x="125" y="118">—</text>

  <rect class="key-mouse" x="144" y="104" width="28" height="28"/>
  <text class="key-text" x="158" y="118">MB5</text>

  <rect class="key-trans" x="177" y="104" width="28" height="28"/>
  <text class="key-text key-text-trans" x="191" y="118">—</text>

  <rect class="key-trans" x="210" y="104" width="28" height="28"/>
  <text class="key-text key-text-trans" x="224" y="118">—</text>

  <rect class="key-trans" x="243" y="104" width="28" height="28"/>
  <text class="key-text key-text-trans" x="257" y="118">—</text>

  <rect class="key-trans" x="276" y="104" width="28" height="28"/>
  <text class="key-text key-text-trans" x="290" y="118">—</text>

  <rect class="key-trans" x="309" y="104" width="28" height="28"/>
  <text class="key-text key-text-trans" x="323" y="118">—</text>

  <rect class="key-trans" x="342" y="104" width="28" height="28"/>
  <text class="key-text key-text-trans" x="356" y="118">—</text>

  <rect class="key-trans" x="375" y="104" width="28" height="28"/>
  <text class="key-text key-text-trans" x="389" y="118">—</text>

  <rect class="key-nav" x="408" y="104" width="84" height="28"/>
  <text class="key-text" x="450" y="118">PG↓</text>

  <rect class="key-trans" x="497" y="104" width="28" height="28"/>
  <text class="key-text key-text-trans" x="511" y="118">—</text>

  <!-- Row 5: All trans -->
  <rect class="key-trans" x="5" y="137" width="40" height="28"/>
  <text class="key-text key-text-trans" x="25" y="151">—</text>

  <rect class="key-trans" x="50" y="137" width="40" height="28"/>
  <text class="key-text key-text-trans" x="70" y="151">—</text>

  <rect class="key-trans" x="95" y="137" width="40" height="28"/>
  <text class="key-text key-text-trans" x="115" y="151">—</text>

  <rect class="key-trans" x="140" y="137" width="225" height="28"/>
  <text class="key-text key-text-trans" x="252.5" y="151">—</text>

  <rect class="key-trans" x="370" y="137" width="40" height="28"/>
  <text class="key-text key-text-trans" x="390" y="151">—</text>

  <rect class="key-trans" x="415" y="137" width="40" height="28"/>
  <text class="key-text key-text-trans" x="435" y="151">—</text>

  <rect class="key-trans" x="460" y="137" width="65" height="28"/>
  <text class="key-text key-text-trans" x="492.5" y="151">—</text>
</svg>
