<?xml version="1.0" encoding="UTF-8"?>
<svg xmlns="http://www.w3.org/2000/svg" viewBox="0 0 800 300" width="800" height="300">
  <defs>
    <style>
      .key {
        fill: #2d2d2d;
        stroke: #4a4a4a;
        stroke-width: 1;
        rx: 3;
      }
      .key-text {
        font-family: -apple-system, BlinkMacSystemFont, 'Segoe UI', Roboto, sans-serif;
        font-size: 10px;
        font-weight: 500;
        fill: #ffffff;
        text-anchor: middle;
        dominant-baseline: middle;
      }
      .key-effect {
        fill: #1e3a8a;
        stroke: #3b82f6;
      }
      .key-brightness {
        fill: #713f12;
        stroke: #f59e0b;
      }
      .key-hue {
        fill: #581c87;
        stroke: #a855f7;
      }
      .key-saturation {
        fill: #7f1d1d;
        stroke: #ef4444;
      }
      .key-transparent {
        fill: #1a1a1a;
        stroke: #374151;
        stroke-dasharray: 2,2;
      }
      .key-transparent .key-text {
        fill: #6b7280;
      }
      .rgb-display {
        fill: url(#rainbow);
        stroke: #4a4a4a;
        stroke-width: 2;
        rx: 4;
      }
      .rgb-text {
        font-family: -apple-system, BlinkMacSystemFont, 'Segoe UI', Roboto, sans-serif;
        font-size: 12px;
        font-weight: 600;
        fill: #ffffff;
        text-anchor: middle;
        dominant-baseline: middle;
      }
      .title {
        font-family: -apple-system, BlinkMacSystemFont, 'Segoe UI', Roboto, sans-serif;
        font-size: 16px;
        font-weight: 600;
        fill: #ffffff;
      }
      .subtitle {
        font-family: -apple-system, BlinkMacSystemFont, 'Segoe UI', Roboto, sans-serif;
        font-size: 12px;
        fill: #9ca3af;
        font-weight: 400;
      }
    </style>

    <!-- Rainbow gradient -->
    <linearGradient id="rainbow" x1="0%" y1="0%" x2="100%" y2="0%">
      <stop offset="0%" style="stop-color:#ff0000" />
      <stop offset="16.66%" style="stop-color:#ff8800" />
      <stop offset="33.33%" style="stop-color:#ffff00" />
      <stop offset="50%" style="stop-color:#00ff00" />
      <stop offset="66.66%" style="stop-color:#0088ff" />
      <stop offset="83.33%" style="stop-color:#0000ff" />
      <stop offset="100%" style="stop-color:#8800ff" />
    </linearGradient>
  </defs>

  <!-- Dark background -->
  <rect width="800" height="300" fill="#1a1a1a"/>

  <!-- Title -->
  <text x="40" y="25" class="title">UNDERGLOW LAYER (4)</text>
  <text x="40" y="42" class="subtitle">RGB Lighting Controls</text>

  <!-- Row 1: 15 keys -->
  <rect x="40" y="60" width="35" height="35" class="key-transparent"/>
  <text x="57" y="77" class="key-text">—</text>

  <rect x="80" y="60" width="35" height="35" class="key-transparent"/>
  <text x="97" y="77" class="key-text">—</text>

  <rect x="120" y="60" width="35" height="35" class="key-transparent"/>
  <text x="137" y="77" class="key-text">—</text>

  <rect x="160" y="60" width="35" height="35" class="key-transparent"/>
  <text x="177" y="77" class="key-text">—</text>

  <rect x="200" y="60" width="35" height="35" class="key-transparent"/>
  <text x="217" y="77" class="key-text">—</text>

  <rect x="240" y="60" width="35" height="35" class="key-transparent"/>
  <text x="257" y="77" class="key-text">—</text>

  <rect x="280" y="60" width="35" height="35" class="key-transparent"/>
  <text x="297" y="77" class="key-text">—</text>

  <rect x="320" y="60" width="35" height="35" class="key-transparent"/>
  <text x="337" y="77" class="key-text">—</text>

  <rect x="360" y="60" width="35" height="35" class="key-transparent"/>
  <text x="377" y="77" class="key-text">—</text>

  <rect x="400" y="60" width="35" height="35" class="key-transparent"/>
  <text x="417" y="77" class="key-text">—</text>

  <rect x="440" y="60" width="35" height="35" class="key-transparent"/>
  <text x="457" y="77" class="key-text">—</text>

  <rect x="480" y="60" width="35" height="35" class="key-transparent"/>
  <text x="497" y="77" class="key-text">—</text>

  <rect x="520" y="60" width="35" height="35" class="key-transparent"/>
  <text x="537" y="77" class="key-text">—</text>

  <rect x="560" y="60" width="70" height="35" class="key-effect"/>
  <text x="595" y="77" class="key-text">EFF</text>

  <rect x="640" y="60" width="35" height="35" class="key-transparent"/>
  <text x="657" y="77" class="key-text">—</text>

  <!-- Row 2: 14 keys -->
  <rect x="40" y="100" width="52" height="35" class="key-transparent"/>
  <text x="66" y="117" class="key-text">—</text>

  <rect x="97" y="100" width="35" height="35" class="key-transparent"/>
  <text x="114" y="117" class="key-text">—</text>

  <rect x="137" y="100" width="35" height="35" class="key-transparent"/>
  <text x="154" y="117" class="key-text">—</text>

  <rect x="177" y="100" width="35" height="35" class="key-transparent"/>
  <text x="194" y="117" class="key-text">—</text>

  <rect x="217" y="100" width="35" height="35" class="key-transparent"/>
  <text x="234" y="117" class="key-text">—</text>

  <rect x="257" y="100" width="35" height="35" class="key-transparent"/>
  <text x="274" y="117" class="key-text">—</text>

  <rect x="297" y="100" width="35" height="35" class="key-transparent"/>
  <text x="314" y="117" class="key-text">—</text>

  <rect x="337" y="100" width="35" height="35" class="key-transparent"/>
  <text x="354" y="117" class="key-text">—</text>

  <rect x="377" y="100" width="35" height="35" class="key-transparent"/>
  <text x="394" y="117" class="key-text">—</text>

  <rect x="417" y="100" width="35" height="35" class="key-transparent"/>
  <text x="434" y="117" class="key-text">—</text>

  <rect x="457" y="100" width="35" height="35" class="key-transparent"/>
  <text x="474" y="117" class="key-text">—</text>

  <rect x="497" y="100" width="35" height="35" class="key-transparent"/>
  <text x="514" y="117" class="key-text">—</text>

  <rect x="537" y="100" width="35" height="35" class="key-transparent"/>
  <text x="554" y="117" class="key-text">—</text>

  <rect x="577" y="100" width="58" height="35" class="key-transparent"/>
  <text x="606" y="117" class="key-text">—</text>

  <!-- Row 3: 14 keys -->
  <rect x="40" y="140" width="52" height="35" class="key-transparent"/>
  <text x="66" y="157" class="key-text">—</text>

  <rect x="97" y="140" width="35" height="35" class="key-transparent"/>
  <text x="114" y="157" class="key-text">—</text>

  <rect x="137" y="140" width="35" height="35" class="key-transparent"/>
  <text x="154" y="157" class="key-text">—</text>

  <rect x="177" y="140" width="35" height="35" class="key-transparent"/>
  <text x="194" y="157" class="key-text">—</text>

  <rect x="217" y="140" width="35" height="35" class="key-transparent"/>
  <text x="234" y="157" class="key-text">—</text>

  <rect x="257" y="140" width="35" height="35" class="key-transparent"/>
  <text x="274" y="157" class="key-text">—</text>

  <rect x="297" y="140" width="35" height="35" class="key-transparent"/>
  <text x="314" y="157" class="key-text">—</text>

  <rect x="337" y="140" width="35" height="35" class="key-transparent"/>
  <text x="354" y="157" class="key-text">—</text>

  <rect x="377" y="140" width="35" height="35" class="key-transparent"/>
  <text x="394" y="157" class="key-text">—</text>

  <rect x="417" y="140" width="35" height="35" class="key-transparent"/>
  <text x="434" y="157" class="key-text">—</text>

  <rect x="457" y="140" width="35" height="35" class="key-transparent"/>
  <text x="474" y="157" class="key-text">—</text>

  <rect x="497" y="140" width="35" height="35" class="key-transparent"/>
  <text x="514" y="157" class="key-text">—</text>

  <rect x="537" y="140" width="93" height="35" class="key-transparent"/>
  <text x="583" y="157" class="key-text">—</text>

  <!-- Row 4: 14 keys -->
  <rect x="40" y="180" width="70" height="35" class="key-transparent"/>
  <text x="75" y="197" class="key-text">—</text>

  <rect x="115" y="180" width="70" height="35" class="key-transparent"/>
  <text x="150" y="197" class="key-text">—</text>

  <rect x="190" y="180" width="35" height="35" class="key-transparent"/>
  <text x="207" y="197" class="key-text">—</text>

  <rect x="230" y="180" width="35" height="35" class="key-transparent"/>
  <text x="247" y="197" class="key-text">—</text>

  <rect x="270" y="180" width="35" height="35" class="key-transparent"/>
  <text x="287" y="197" class="key-text">—</text>

  <rect x="310" y="180" width="35" height="35" class="key-transparent"/>
  <text x="327" y="197" class="key-text">—</text>

  <rect x="350" y="180" width="35" height="35" class="key-transparent"/>
  <text x="367" y="197" class="key-text">—</text>

  <rect x="390" y="180" width="35" height="35" class="key-transparent"/>
  <text x="407" y="197" class="key-text">—</text>

  <rect x="430" y="180" width="35" height="35" class="key-transparent"/>
  <text x="447" y="197" class="key-text">—</text>

  <rect x="470" y="180" width="35" height="35" class="key-transparent"/>
  <text x="487" y="197" class="key-text">—</text>

  <rect x="510" y="180" width="35" height="35" class="key-transparent"/>
  <text x="527" y="197" class="key-text">—</text>

  <rect x="550" y="180" width="35" height="35" class="key-transparent"/>
  <text x="567" y="197" class="key-text">—</text>

  <rect x="590" y="180" width="75" height="35" class="key-saturation"/>
  <text x="627" y="197" class="key-text">SAT</text>

  <rect x="670" y="180" width="35" height="35" class="key-transparent"/>
  <text x="687" y="197" class="key-text">—</text>

  <rect x="705" y="180" width="35" height="35" class="key-transparent"/>
  <text x="722" y="197" class="key-text">—</text>

  <rect x="745" y="180" width="35" height="35" class="key-transparent"/>
  <text x="762" y="197" class="key-text">—</text>

  <rect x="785" y="180" width="35" height="35" class="key-transparent"/>
  <text x="802" y="197" class="key-text">—</text>

  <!-- Row 5: 7 keys -->
  <rect x="40" y="220" width="45" height="35" class="key-transparent"/>
  <text x="62" y="237" class="key-text">—</text>

  <rect x="90" y="220" width="45" height="35" class="key-transparent"/>
  <text x="112" y="237" class="key-text">—</text>

  <rect x="140" y="220" width="45" height="35" class="key-transparent"/>
  <text x="162" y="237" class="key-text">—</text>

  <rect x="190" y="220" width="219" height="35" class="key-transparent"/>
  <text x="299" y="237" class="key-text">—</text>

  <rect x="420" y="220" width="45" height="35" class="key-transparent"/>
  <text x="442" y="237" class="key-text">—</text>

  <rect x="470" y="220" width="50" height="35" class="key-transparent"/>
  <text x="495" y="237" class="key-text">—</text>

  <rect x="525" y="220" width="45" height="35" class="key-transparent"/>
  <text x="547" y="237" class="key-text">—</text>

  <!-- RGB Visualization -->
  <rect x="720" y="120" width="60" height="60" class="rgb-display"/>
  <text x="750" y="150" class="rgb-text">RGB</text>

  <!-- Legend -->
  <text x="40" y="285" style="font-family: -apple-system, BlinkMacSystemFont, 'Segoe UI', Roboto, sans-serif; font-size: 10px; fill: #9ca3af;">
    Blue: Effect control | Yellow: Brightness | Purple: Hue | Red: Saturation | Gray: Transparent (pass-through)
  </text>
</svg>