<?xml version="1.0" encoding="UTF-8"?>
<svg xmlns="http://www.w3.org/2000/svg" viewBox="0 0 800 340" width="800" height="340">
  <defs>
    <style>
      .key {
        fill: #2d2d2d;
        stroke: #4a4a4a;
        stroke-width: 1;
        rx: 3;
      }
      .key-text {
        font-family: -apple-system, BlinkMacSystemFont, 'Segoe UI', Roboto, sans-serif;
        font-size: 10px;
        font-weight: 500;
        fill: #ffffff;
        text-anchor: middle;
        dominant-baseline: middle;
      }
      .key-effect {
        fill: #1e3a8a;
        stroke: #3b82f6;
      }
      .key-brightness {
        fill: #713f12;
        stroke: #f59e0b;
      }
      .key-hue {
        fill: #581c87;
        stroke: #a855f7;
      }
      .key-saturation {
        fill: #7f1d1d;
        stroke: #ef4444;
      }
      .key-transparent {
        fill: #1a1a1a;
        stroke: #374151;
        stroke-dasharray: 2,2;
      }
      .key-transparent .key-text {
        fill: #6b7280;
      }
      .rgb-display {
        fill: url(#rainbow);
        stroke: #4a4a4a;
        stroke-width: 2;
        rx: 4;
      }
      .rgb-text {
        font-family: -apple-system, BlinkMacSystemFont, 'Segoe UI', Roboto, sans-serif;
        font-size: 12px;
        font-weight: 600;
        fill: #ffffff;
        text-anchor: middle;
        dominant-baseline: middle;
      }
      .title {
        font-family: -apple-system, BlinkMacSystemFont, 'Segoe UI', Roboto, sans-serif;
        font-size: 16px;
        font-weight: 600;
        fill: #ffffff;
      }
      .subtitle {
        font-family: -apple-system, BlinkMacSystemFont, 'Segoe UI', Roboto, sans-serif;
        font-size: 12px;
        fill: #9ca3af;
        font-weight: 400;
      }
    </style>

    <!-- Rainbow gradient -->
    <linearGradient id="rainbow" x1="0%" y1="0%" x2="100%" y2="0%">
      <stop offset="0%" style="stop-color:#ff0000" />
      <stop offset="16.66%" style="stop-color:#ff8800" />
      <stop offset="33.33%" style="stop-color:#ffff00" />
      <stop offset="50%" style="stop-color:#00ff00" />
      <stop offset="66.66%" style="stop-color:#0088ff" />
      <stop offset="83.33%" style="stop-color:#0000ff" />
      <stop offset="100%" style="stop-color:#8800ff" />
    </linearGradient>
  </defs>

  <!-- Dark background -->
  <rect width="800" height="340" fill="#1a1a1a"/>

  <!-- Title -->
  <text x="40" y="30" class="title">UNDERGLOW LAYER (4)</text>
  <text x="40" y="50" class="subtitle">RGB Lighting Controls</text>

  <!-- Row 1 -->
  <rect x="40" y="70" width="40" height="40" class="key-transparent"/>
  <text x="60" y="90" class="key-text">—</text>

  <rect x="85" y="70" width="40" height="40" class="key-transparent"/>
  <text x="105" y="90" class="key-text">—</text>

  <rect x="130" y="70" width="40" height="40" class="key-transparent"/>
  <text x="150" y="90" class="key-text">—</text>

  <rect x="175" y="70" width="40" height="40" class="key-transparent"/>
  <text x="195" y="90" class="key-text">—</text>

  <rect x="220" y="70" width="40" height="40" class="key-transparent"/>
  <text x="240" y="90" class="key-text">—</text>

  <rect x="265" y="70" width="40" height="40" class="key-transparent"/>
  <text x="285" y="90" class="key-text">—</text>

  <rect x="310" y="70" width="40" height="40" class="key-transparent"/>
  <text x="330" y="90" class="key-text">—</text>

  <rect x="355" y="70" width="40" height="40" class="key-transparent"/>
  <text x="375" y="90" class="key-text">—</text>

  <rect x="400" y="70" width="40" height="40" class="key-transparent"/>
  <text x="420" y="90" class="key-text">—</text>

  <rect x="445" y="70" width="40" height="40" class="key-transparent"/>
  <text x="465" y="90" class="key-text">—</text>

  <rect x="490" y="70" width="40" height="40" class="key-transparent"/>
  <text x="510" y="90" class="key-text">—</text>

  <rect x="535" y="70" width="40" height="40" class="key-transparent"/>
  <text x="555" y="90" class="key-text">—</text>

  <rect x="580" y="70" width="40" height="40" class="key-effect"/>
  <text x="600" y="90" class="key-text">EFF←</text>

  <rect x="625" y="70" width="40" height="40" class="key-effect"/>
  <text x="645" y="90" class="key-text">EFF→</text>

  <rect x="670" y="70" width="40" height="40" class="key-transparent"/>
  <text x="690" y="90" class="key-text">—</text>

  <!-- Row 2 -->
  <rect x="40" y="115" width="60" height="40" class="key-transparent"/>
  <text x="70" y="135" class="key-text">—</text>

  <rect x="105" y="115" width="40" height="40" class="key-transparent"/>
  <text x="125" y="135" class="key-text">—</text>

  <rect x="150" y="115" width="40" height="40" class="key-transparent"/>
  <text x="170" y="135" class="key-text">—</text>

  <rect x="195" y="115" width="40" height="40" class="key-transparent"/>
  <text x="215" y="135" class="key-text">—</text>

  <rect x="240" y="115" width="40" height="40" class="key-transparent"/>
  <text x="260" y="135" class="key-text">—</text>

  <rect x="285" y="115" width="40" height="40" class="key-transparent"/>
  <text x="305" y="135" class="key-text">—</text>

  <rect x="330" y="115" width="40" height="40" class="key-transparent"/>
  <text x="350" y="135" class="key-text">—</text>

  <rect x="375" y="115" width="40" height="40" class="key-transparent"/>
  <text x="395" y="135" class="key-text">—</text>

  <rect x="420" y="115" width="40" height="40" class="key-transparent"/>
  <text x="440" y="135" class="key-text">—</text>

  <rect x="465" y="115" width="40" height="40" class="key-transparent"/>
  <text x="485" y="135" class="key-text">—</text>

  <rect x="510" y="115" width="40" height="40" class="key-transparent"/>
  <text x="530" y="135" class="key-text">—</text>

  <rect x="555" y="115" width="40" height="40" class="key-brightness"/>
  <text x="575" y="135" class="key-text">BRI-</text>

  <rect x="600" y="115" width="40" height="40" class="key-brightness"/>
  <text x="620" y="135" class="key-text">BRI+</text>

  <rect x="645" y="115" width="40" height="40" class="key-brightness"/>
  <text x="665" y="135" class="key-text">TOG</text>

  <rect x="690" y="115" width="20" height="40" class="key-transparent"/>
  <text x="700" y="135" class="key-text">—</text>

  <!-- Row 3 -->
  <rect x="40" y="160" width="60" height="40" class="key-transparent"/>
  <text x="70" y="180" class="key-text">—</text>

  <rect x="105" y="160" width="40" height="40" class="key-transparent"/>
  <text x="125" y="180" class="key-text">—</text>

  <rect x="150" y="160" width="40" height="40" class="key-transparent"/>
  <text x="170" y="180" class="key-text">—</text>

  <rect x="195" y="160" width="40" height="40" class="key-transparent"/>
  <text x="215" y="180" class="key-text">—</text>

  <rect x="240" y="160" width="40" height="40" class="key-transparent"/>
  <text x="260" y="180" class="key-text">—</text>

  <rect x="285" y="160" width="40" height="40" class="key-transparent"/>
  <text x="305" y="180" class="key-text">—</text>

  <rect x="330" y="160" width="40" height="40" class="key-transparent"/>
  <text x="350" y="180" class="key-text">—</text>

  <rect x="375" y="160" width="40" height="40" class="key-transparent"/>
  <text x="395" y="180" class="key-text">—</text>

  <rect x="420" y="160" width="40" height="40" class="key-transparent"/>
  <text x="440" y="180" class="key-text">—</text>

  <rect x="465" y="160" width="40" height="40" class="key-transparent"/>
  <text x="485" y="180" class="key-text">—</text>

  <rect x="510" y="160" width="40" height="40" class="key-transparent"/>
  <text x="530" y="180" class="key-text">—</text>

  <rect x="555" y="160" width="40" height="40" class="key-transparent"/>
  <text x="575" y="180" class="key-text">—</text>

  <rect x="600" y="160" width="40" height="40" class="key-hue"/>
  <text x="620" y="180" class="key-text">HUE-</text>

  <rect x="645" y="160" width="40" height="40" class="key-hue"/>
  <text x="665" y="180" class="key-text">HUE+</text>

  <rect x="690" y="160" width="20" height="40" class="key-transparent"/>
  <text x="700" y="180" class="key-text">—</text>

  <!-- Row 4 -->
  <rect x="40" y="205" width="75" height="40" class="key-transparent"/>
  <text x="77" y="225" class="key-text">—</text>

  <rect x="120" y="205" width="75" height="40" class="key-transparent"/>
  <text x="157" y="225" class="key-text">—</text>

  <rect x="200" y="205" width="40" height="40" class="key-transparent"/>
  <text x="220" y="225" class="key-text">—</text>

  <rect x="245" y="205" width="40" height="40" class="key-transparent"/>
  <text x="265" y="225" class="key-text">—</text>

  <rect x="290" y="205" width="40" height="40" class="key-transparent"/>
  <text x="310" y="225" class="key-text">—</text>

  <rect x="335" y="205" width="40" height="40" class="key-transparent"/>
  <text x="355" y="225" class="key-text">—</text>

  <rect x="380" y="205" width="40" height="40" class="key-transparent"/>
  <text x="400" y="225" class="key-text">—</text>

  <rect x="425" y="205" width="40" height="40" class="key-transparent"/>
  <text x="445" y="225" class="key-text">—</text>

  <rect x="470" y="205" width="40" height="40" class="key-transparent"/>
  <text x="490" y="225" class="key-text">—</text>

  <rect x="515" y="205" width="40" height="40" class="key-transparent"/>
  <text x="535" y="225" class="key-text">—</text>

  <rect x="560" y="205" width="40" height="40" class="key-transparent"/>
  <text x="580" y="225" class="key-text">—</text>

  <rect x="605" y="205" width="40" height="40" class="key-saturation"/>
  <text x="625" y="225" class="key-text">SAT-</text>

  <rect x="650" y="205" width="40" height="40" class="key-saturation"/>
  <text x="670" y="225" class="key-text">SAT+</text>

  <rect x="730" y="205" width="50" height="40" class="key-transparent"/>
  <text x="755" y="225" class="key-text">—</text>

  <!-- Row 5 -->
  <rect x="40" y="250" width="50" height="40" class="key-transparent"/>
  <text x="65" y="270" class="key-text">—</text>

  <rect x="95" y="250" width="50" height="40" class="key-transparent"/>
  <text x="120" y="270" class="key-text">—</text>

  <rect x="150" y="250" width="50" height="40" class="key-transparent"/>
  <text x="175" y="270" class="key-text">—</text>

  <rect x="205" y="250" width="200" height="40" class="key-transparent"/>
  <text x="305" y="270" class="key-text">—</text>

  <rect x="410" y="250" width="200" height="40" class="key-transparent"/>
  <text x="510" y="270" class="key-text">—</text>

  <rect x="615" y="250" width="50" height="40" class="key-transparent"/>
  <text x="640" y="270" class="key-text">—</text>

  <rect x="670" y="250" width="60" height="40" class="key-transparent"/>
  <text x="700" y="270" class="key-text">—</text>

  <rect x="735" y="250" width="50" height="40" class="key-transparent"/>
  <text x="760" y="270" class="key-text">—</text>

  <!-- RGB Visualization -->
  <rect x="720" y="130" width="60" height="60" class="rgb-display"/>
  <text x="750" y="160" class="rgb-text">RGB</text>

  <!-- Legend -->
  <text x="40" y="320" style="font-family: -apple-system, BlinkMacSystemFont, 'Segoe UI', Roboto, sans-serif; font-size: 10px; fill: #9ca3af;">
    Blue: Effect control | Yellow: Brightness | Purple: Hue | Red: Saturation | Gray: Transparent (pass-through)
  </text>
</svg>