<?xml version="1.0" encoding="UTF-8"?>
<svg xmlns="http://www.w3.org/2000/svg" viewBox="0 0 800 300" width="800" height="300">
  <defs>
    <style>
      .key {
        fill: #2d2d2d;
        stroke: #4a4a4a;
        stroke-width: 1;
        rx: 3;
      }
      .key-text {
        font-family: -apple-system, BlinkMacSystemFont, 'Segoe UI', Roboto, sans-serif;
        font-size: 10px;
        font-weight: 500;
        fill: #ffffff;
        text-anchor: middle;
        dominant-baseline: middle;
      }
      .key-effect {
        fill: #1e3a8a;
        stroke: #3b82f6;
      }
      .key-brightness {
        fill: #713f12;
        stroke: #f59e0b;
      }
      .key-hue {
        fill: #581c87;
        stroke: #a855f7;
      }
      .key-saturation {
        fill: #7f1d1d;
        stroke: #ef4444;
      }
      .key-transparent {
        fill: #1a1a1a;
        stroke: #374151;
        stroke-dasharray: 2,2;
      }
      .key-transparent .key-text {
        fill: #6b7280;
      }
      .rgb-display {
        fill: url(#rainbow);
        stroke: #4a4a4a;
        stroke-width: 2;
        rx: 4;
      }
      .rgb-text {
        font-family: -apple-system, BlinkMacSystemFont, 'Segoe UI', Roboto, sans-serif;
        font-size: 12px;
        font-weight: 600;
        fill: #ffffff;
        text-anchor: middle;
        dominant-baseline: middle;
      }
      .title {
        font-family: -apple-system, BlinkMacSystemFont, 'Segoe UI', Roboto, sans-serif;
        font-size: 16px;
        font-weight: 600;
        fill: #ffffff;
      }
      .subtitle {
        font-family: -apple-system, BlinkMacSystemFont, 'Segoe UI', Roboto, sans-serif;
        font-size: 12px;
        fill: #9ca3af;
        font-weight: 400;
      }
    </style>

    <!-- Rainbow gradient -->
    <linearGradient id="rainbow" x1="0%" y1="0%" x2="100%" y2="0%">
      <stop offset="0%" style="stop-color:#ff0000" />
      <stop offset="16.66%" style="stop-color:#ff8800" />
      <stop offset="33.33%" style="stop-color:#ffff00" />
      <stop offset="50%" style="stop-color:#00ff00" />
      <stop offset="66.66%" style="stop-color:#0088ff" />
      <stop offset="83.33%" style="stop-color:#0000ff" />
      <stop offset="100%" style="stop-color:#8800ff" />
    </linearGradient>
  </defs>

  <!-- Dark background -->
  <rect width="800" height="300" fill="#1a1a1a"/>

  <!-- Title -->
  <text x="40" y="25" class="title">UNDERGLOW LAYER (4)</text>
  <text x="40" y="42" class="subtitle">RGB Lighting Controls</text>

  <!-- Row 1: 15 keys -->
  <rect x="40" y="60" width="35" height="35" class="key-transparent"/>
  <text x="57" y="77" class="key-text">—</text>

  <rect x="80" y="60" width="35" height="35" class="key-transparent"/>
  <text x="97" y="77" class="key-text">—</text>

  <rect x="120" y="60" width="35" height="35" class="key-transparent"/>
  <text x="137" y="77" class="key-text">—</text>

  <rect x="160" y="60" width="35" height="35" class="key-transparent"/>
  <text x="177" y="77" class="key-text">—</text>

  <rect x="200" y="60" width="35" height="35" class="key-transparent"/>
  <text x="217" y="77" class="key-text">—</text>

  <rect x="240" y="60" width="35" height="35" class="key-transparent"/>
  <text x="257" y="77" class="key-text">—</text>

  <rect x="280" y="60" width="35" height="35" class="key-transparent"/>
  <text x="297" y="77" class="key-text">—</text>

  <rect x="320" y="60" width="35" height="35" class="key-transparent"/>
  <text x="337" y="77" class="key-text">—</text>

  <rect x="360" y="60" width="35" height="35" class="key-transparent"/>
  <text x="377" y="77" class="key-text">—</text>

  <rect x="400" y="60" width="35" height="35" class="key-transparent"/>
  <text x="417" y="77" class="key-text">—</text>

  <rect x="440" y="60" width="35" height="35" class="key-transparent"/>
  <text x="457" y="77" class="key-text">—</text>

  <rect x="480" y="60" width="35" height="35" class="key-transparent"/>
  <text x="497" y="77" class="key-text">—</text>

  <rect x="520" y="60" width="35" height="35" class="key-transparent"/>
  <text x="537" y="77" class="key-text">—</text>

  <rect x="560" y="60" width="70" height="35" class="key-effect"/>
  <text x="595" y="77" class="key-text">EFF</text>

  <rect x="640" y="60" width="35" height="35" class="key-transparent"/>
  <text x="657" y="77" class="key-text">—</text>

  <!-- Row 2: 14 keys -->
  <rect x="40" y="100" width="52.5" height="35" class="key-transparent"/>
  <text x="66.25" y="117" class="key-text">—</text>

  <rect x="97.5" y="100" width="35" height="35" class="key-transparent"/>
  <text x="114.5" y="117" class="key-text">—</text>

  <rect x="137.5" y="100" width="35" height="35" class="key-transparent"/>
  <text x="154.5" y="117" class="key-text">—</text>

  <rect x="177.5" y="100" width="35" height="35" class="key-transparent"/>
  <text x="194.5" y="117" class="key-text">—</text>

  <rect x="217.5" y="100" width="35" height="35" class="key-transparent"/>
  <text x="234.5" y="117" class="key-text">—</text>

  <rect x="257.5" y="100" width="35" height="35" class="key-transparent"/>
  <text x="274.5" y="117" class="key-text">—</text>

  <rect x="297.5" y="100" width="35" height="35" class="key-transparent"/>
  <text x="314.5" y="117" class="key-text">—</text>

  <rect x="337.5" y="100" width="35" height="35" class="key-transparent"/>
  <text x="354.5" y="117" class="key-text">—</text>

  <rect x="377.5" y="100" width="35" height="35" class="key-transparent"/>
  <text x="394.5" y="117" class="key-text">—</text>

  <rect x="417.5" y="100" width="35" height="35" class="key-transparent"/>
  <text x="434.5" y="117" class="key-text">—</text>

  <rect x="457.5" y="100" width="35" height="35" class="key-transparent"/>
  <text x="474.5" y="117" class="key-text">—</text>

  <rect x="497.5" y="100" width="35" height="35" class="key-transparent"/>
  <text x="514.5" y="117" class="key-text">—</text>

  <rect x="537.5" y="100" width="35" height="35" class="key-transparent"/>
  <text x="554.5" y="117" class="key-text">—</text>

  <rect x="577.5" y="100" width="52.5" height="35" class="key-transparent"/>
  <text x="603.75" y="117" class="key-text">—</text>

  <!-- Row 3: 14 keys -->
  <rect x="40" y="140" width="61.25" height="35" class="key-transparent"/>
  <text x="70.625" y="157" class="key-text">—</text>

  <rect x="106.25" y="140" width="35" height="35" class="key-transparent"/>
  <text x="123.25" y="157" class="key-text">—</text>

  <rect x="146.25" y="140" width="35" height="35" class="key-transparent"/>
  <text x="163.25" y="157" class="key-text">—</text>

  <rect x="186.25" y="140" width="35" height="35" class="key-transparent"/>
  <text x="203.25" y="157" class="key-text">—</text>

  <rect x="226.25" y="140" width="35" height="35" class="key-transparent"/>
  <text x="243.25" y="157" class="key-text">—</text>

  <rect x="266.25" y="140" width="35" height="35" class="key-transparent"/>
  <text x="283.25" y="157" class="key-text">—</text>

  <rect x="306.25" y="140" width="35" height="35" class="key-transparent"/>
  <text x="323.25" y="157" class="key-text">—</text>

  <rect x="346.25" y="140" width="35" height="35" class="key-transparent"/>
  <text x="363.25" y="157" class="key-text">—</text>

  <rect x="386.25" y="140" width="35" height="35" class="key-transparent"/>
  <text x="403.25" y="157" class="key-text">—</text>

  <rect x="426.25" y="140" width="35" height="35" class="key-transparent"/>
  <text x="443.25" y="157" class="key-text">—</text>

  <rect x="466.25" y="140" width="35" height="35" class="key-transparent"/>
  <text x="483.25" y="157" class="key-text">—</text>

  <rect x="506.25" y="140" width="35" height="35" class="key-transparent"/>
  <text x="523.25" y="157" class="key-text">—</text>

  <rect x="546.25" y="140" width="78.75" height="35" class="key-transparent"/>
  <text x="585.625" y="157" class="key-text">—</text>

  <!-- Row 4: 14 keys -->
  <rect x="40" y="180" width="78.75" height="35" class="key-transparent"/>
  <text x="79.375" y="197" class="key-text">—</text>

  <rect x="123.75" y="180" width="35" height="35" class="key-transparent"/>
  <text x="140.75" y="197" class="key-text">—</text>

  <rect x="163.75" y="180" width="35" height="35" class="key-transparent"/>
  <text x="180.75" y="197" class="key-text">—</text>

  <rect x="203.75" y="180" width="35" height="35" class="key-transparent"/>
  <text x="220.75" y="197" class="key-text">—</text>

  <rect x="243.75" y="180" width="35" height="35" class="key-transparent"/>
  <text x="260.75" y="197" class="key-text">—</text>

  <rect x="283.75" y="180" width="35" height="35" class="key-transparent"/>
  <text x="300.75" y="197" class="key-text">—</text>

  <rect x="323.75" y="180" width="35" height="35" class="key-transparent"/>
  <text x="340.75" y="197" class="key-text">—</text>

  <rect x="363.75" y="180" width="35" height="35" class="key-transparent"/>
  <text x="380.75" y="197" class="key-text">—</text>

  <rect x="403.75" y="180" width="35" height="35" class="key-transparent"/>
  <text x="420.75" y="197" class="key-text">—</text>

  <rect x="443.75" y="180" width="35" height="35" class="key-transparent"/>
  <text x="460.75" y="197" class="key-text">—</text>

  <rect x="483.75" y="180" width="35" height="35" class="key-transparent"/>
  <text x="500.75" y="197" class="key-text">—</text>

  <rect x="523.75" y="180" width="96.25" height="35" class="key-transparent"/>
  <text x="571.875" y="197" class="key-text">—</text>

  <rect x="625" y="180" width="40" height="35" class="key-saturation"/>
  <text x="645" y="197" class="key-text">SAT</text>

  <!-- Row 5: 7 keys -->
  <rect x="40" y="220" width="43.75" height="35" class="key-transparent"/>
  <text x="61.875" y="237" class="key-text">—</text>

  <rect x="88.75" y="220" width="43.75" height="35" class="key-transparent"/>
  <text x="110.625" y="237" class="key-text">—</text>

  <rect x="137.5" y="220" width="43.75" height="35" class="key-transparent"/>
  <text x="159.375" y="237" class="key-text">—</text>

  <rect x="186.25" y="220" width="218.75" height="35" class="key-transparent"/>
  <text x="295.625" y="237" class="key-text">—</text>

  <rect x="410" y="220" width="43.75" height="35" class="key-transparent"/>
  <text x="431.875" y="237" class="key-text">—</text>

  <rect x="458.75" y="220" width="43.75" height="35" class="key-transparent"/>
  <text x="480.625" y="237" class="key-text">—</text>

  <rect x="507.5" y="220" width="43.75" height="35" class="key-transparent"/>
  <text x="529.375" y="237" class="key-text">—</text>

  <!-- RGB Visualization -->
  <rect x="720" y="120" width="60" height="60" class="rgb-display"/>
  <text x="750" y="150" class="rgb-text">RGB</text>

  <!-- Legend -->
  <text x="40" y="285" style="font-family: -apple-system, BlinkMacSystemFont, 'Segoe UI', Roboto, sans-serif; font-size: 10px; fill: #9ca3af;">
    Blue: Effect control | Yellow: Brightness | Purple: Hue | Red: Saturation | Gray: Transparent (pass-through)
  </text>
</svg>